<svg width="13" height="12" viewBox="0 0 13 12" fill="none" xmlns="http://www.w3.org/2000/svg">
<mask id="mask0_158_53" style="mask-type:alpha" maskUnits="userSpaceOnUse" x="1" y="0" width="11" height="12">
<path d="M8.88646 0.00594422C8.86096 -0.0225558 7.94221 0.0171943 7.14271 0.884944C6.34321 1.75194 6.46621 2.74644 6.48421 2.77194C6.50221 2.79744 7.62421 2.83719 8.34046 1.82844C9.05671 0.819694 8.91196 0.0351942 8.88646 0.00594422ZM11.372 8.80569C11.336 8.73369 9.62821 7.88019 9.78721 6.23919C9.94621 4.59744 11.0435 4.14744 11.0607 4.09869C11.078 4.04994 10.613 3.50619 10.1202 3.23094C9.75842 3.03688 9.35801 2.9257 8.94796 2.90544C8.86696 2.90319 8.58571 2.83419 8.00746 2.99244C7.62646 3.09669 6.76771 3.43419 6.53146 3.44769C6.29446 3.46119 5.58946 3.05619 4.83121 2.94894C4.34596 2.85519 3.83146 3.04719 3.46321 3.19494C3.09571 3.34194 2.39671 3.76044 1.90771 4.87269C1.41871 5.98419 1.67446 7.74519 1.85746 8.29269C2.04046 8.83944 2.32621 9.73569 2.81221 10.3897C3.24421 11.1277 3.81721 11.6399 4.05646 11.8139C4.29571 11.9879 4.97071 12.1034 5.43871 11.8642C5.81521 11.6332 6.49471 11.5004 6.76321 11.5102C7.03096 11.5199 7.55896 11.6257 8.09971 11.9144C8.52796 12.0622 8.93296 12.0007 9.33871 11.8357C9.74446 11.6699 10.3317 11.0414 11.0172 9.76719C11.2775 9.17469 11.396 8.85444 11.372 8.80569Z" fill="white"/>
<path d="M8.88646 0.00594422C8.86096 -0.0225558 7.94221 0.0171943 7.14271 0.884944C6.34321 1.75194 6.46621 2.74644 6.48421 2.77194C6.50221 2.79744 7.62421 2.83719 8.34046 1.82844C9.05671 0.819694 8.91196 0.0351942 8.88646 0.00594422ZM11.372 8.80569C11.336 8.73369 9.62821 7.88019 9.78721 6.23919C9.94621 4.59744 11.0435 4.14744 11.0607 4.09869C11.078 4.04994 10.613 3.50619 10.1202 3.23094C9.75842 3.03688 9.35801 2.9257 8.94796 2.90544C8.86696 2.90319 8.58571 2.83419 8.00746 2.99244C7.62646 3.09669 6.76771 3.43419 6.53146 3.44769C6.29446 3.46119 5.58946 3.05619 4.83121 2.94894C4.34596 2.85519 3.83146 3.04719 3.46321 3.19494C3.09571 3.34194 2.39671 3.76044 1.90771 4.87269C1.41871 5.98419 1.67446 7.74519 1.85746 8.29269C2.04046 8.83944 2.32621 9.73569 2.81221 10.3897C3.24421 11.1277 3.81721 11.6399 4.05646 11.8139C4.29571 11.9879 4.97071 12.1034 5.43871 11.8642C5.81521 11.6332 6.49471 11.5004 6.76321 11.5102C7.03096 11.5199 7.55896 11.6257 8.09971 11.9144C8.52796 12.0622 8.93296 12.0007 9.33871 11.8357C9.74446 11.6699 10.3317 11.0414 11.0172 9.76719C11.2775 9.17469 11.396 8.85444 11.372 8.80569Z" fill="white"/>
</mask>
<g mask="url(#mask0_158_53)">
<rect x="0.500977" width="12" height="12" fill="white"/>
</g>
</svg>
