<svg width="170" height="169" viewBox="0 0 170 169" fill="none" xmlns="http://www.w3.org/2000/svg">
<mask id="mask0_57_838" style="mask-type:luminance" maskUnits="userSpaceOnUse" x="33" y="11" width="48" height="68">
<path d="M72.2554 74.2271C74.604 75.8886 77.2633 77.0593 80.0744 77.6695C70.7073 79.4927 60.997 77.8018 52.7966 72.9194C44.5962 68.0369 38.4797 60.3049 35.6144 51.1986C27.5191 25.3542 41.1881 20.091 61.0132 11.0662C57.1364 15.7749 54.3278 21.2695 52.7815 27.1704C51.2351 33.0712 50.9879 39.2376 52.0569 45.2435C53.1259 51.2493 55.4856 56.9513 58.9729 61.9555C62.4603 66.9596 66.9922 71.1466 72.2554 74.2271Z" fill="white"/>
</mask>
<g mask="url(#mask0_57_838)">
<path d="M80.0745 11.0662H27.5192V79.086H80.0745V11.0662Z" fill="white"/>
</g>
<mask id="mask1_57_838" style="mask-type:luminance" maskUnits="userSpaceOnUse" x="68" y="16" width="70" height="44">
<path d="M75.6899 37.4673C73.0771 38.6714 70.7337 40.3901 68.7999 42.5206C71.9054 33.4936 78.2245 25.9265 86.5513 21.2632C94.8781 16.5999 104.63 15.167 113.945 17.2378C140.365 23.1468 138.084 37.6213 135.986 59.3102C133.849 53.5972 130.497 48.4166 126.162 44.1264C121.827 39.8362 116.612 36.5388 110.879 34.4619C105.146 32.3851 99.0298 31.5784 92.9542 32.0976C86.8786 32.6168 80.9882 34.4494 75.6899 37.4689" fill="white"/>
</mask>
<g mask="url(#mask1_57_838)">
<path d="M140.365 15.973H68.7999V59.3088H140.365V15.973Z" fill="white"/>
</g>
<mask id="mask2_57_838" style="mask-type:luminance" maskUnits="userSpaceOnUse" x="32" y="54" width="69" height="44">
<path d="M93.4697 76.2109C96.0824 75.0071 98.4258 73.2887 100.36 71.1583C97.2541 80.1854 90.9351 87.7525 82.6083 92.4158C74.2815 97.0791 64.5299 98.512 55.2143 96.4412C28.7941 90.5338 31.0719 76.0593 33.1731 54.3736C35.3108 60.0866 38.663 65.2671 42.998 69.5572C47.3329 73.8473 52.5473 77.1446 58.2807 79.2214C64.0141 81.2981 70.1299 82.1048 76.2055 81.5856C82.281 81.0663 88.1714 79.2336 93.4697 76.2141" fill="white"/>
</mask>
<g mask="url(#mask2_57_838)">
<path d="M100.36 54.3704H28.7942V97.7062H100.36V54.3704Z" fill="white"/>
</g>
<mask id="mask3_57_838" style="mask-type:luminance" maskUnits="userSpaceOnUse" x="54" y="0" width="59" height="64">
<path d="M63.3655 54.8598C63.1015 57.7254 63.4175 60.6148 64.2946 63.3555C58.0314 56.1517 54.6391 46.8929 54.7651 37.3463C54.891 27.7997 58.5264 18.6337 64.9774 11.5978C83.3024 -8.3368 94.6936 0.872802 112.418 13.5369C106.404 12.5329 100.243 12.8472 94.3618 14.4582C88.4805 16.0693 83.0191 18.9386 78.3548 22.8678C73.6905 26.7971 69.9346 31.6927 67.3466 37.2163C64.7586 42.7398 63.4003 48.7597 63.3655 54.8598Z" fill="white"/>
</mask>
<g mask="url(#mask3_57_838)">
<path d="M112.422 -8.33842H54.3152V63.3523H112.422V-8.33842Z" fill="white"/>
</g>
<mask id="mask4_57_838" style="mask-type:luminance" maskUnits="userSpaceOnUse" x="89" y="35" width="47" height="68">
<path d="M96.9033 39.4519C94.5546 37.7906 91.8953 36.6198 89.0843 36.0095C98.451 34.1861 108.161 35.8766 116.361 40.7584C124.562 45.6401 130.678 53.3714 133.544 62.4771C141.64 88.3215 127.971 93.5847 108.145 102.61C112.022 97.9009 114.83 92.4064 116.377 86.5055C117.923 80.6047 118.17 74.4383 117.101 68.4325C116.032 62.4267 113.673 56.7246 110.186 51.7204C106.698 46.7162 102.166 42.5292 96.9033 39.4486" fill="white"/>
</mask>
<g mask="url(#mask4_57_838)">
<path d="M141.64 34.593H89.0843V102.613H141.64V34.593Z" fill="white"/>
</g>
<mask id="mask5_57_838" style="mask-type:luminance" maskUnits="userSpaceOnUse" x="56" y="50" width="59" height="64">
<path d="M105.794 58.8232C106.058 55.9576 105.742 53.0682 104.865 50.3275C111.127 57.5314 114.518 66.7897 114.392 76.3355C114.265 85.8814 110.63 95.0466 104.18 102.082C85.8548 122.017 74.4636 112.807 56.7388 100.143C62.7533 101.147 68.914 100.833 74.7953 99.2226C80.6766 97.612 86.1383 94.743 90.8028 90.814C95.4673 86.8851 99.2235 81.9898 101.812 76.4664C104.4 70.943 105.759 64.9233 105.794 58.8232Z" fill="white"/>
</mask>
<g mask="url(#mask5_57_838)">
<path d="M114.845 50.3276H56.7388V122.018H114.845V50.3276Z" fill="white"/>
</g>
<path d="M1.40471 157.772V142.447C1.40471 138.495 0.936472 135.055 0 132.127H19.4538L16.862 137.792C14.0526 136.388 10.64 135.685 6.62967 135.685V147.981H18.1786L15.1047 153.162C12.7333 152.255 9.90732 151.743 6.62967 151.625V164.578C12.1631 164.578 17.0961 163.76 21.4287 162.119L21.5168 162.207L18.9691 168.09H0C0.936472 165.165 1.40471 161.725 1.40471 157.772Z" fill="white"/>
<path d="M39.7835 162.559L39.8717 162.647L38.2907 168.093H22.131C24.4419 164.228 26.538 160.116 28.4109 155.753L32.2312 146.796H28.0143C25.585 146.796 23.7561 147.366 22.5249 148.509L22.4368 148.421L23.5798 143.105H39.431C37.3818 147.146 35.4345 151.316 33.5918 155.621L29.7716 164.405H32.1871C35.3766 164.405 37.9078 163.788 39.7835 162.559Z" fill="white"/>
<path d="M44.5678 157.772V142.447C44.5678 138.495 44.0996 135.055 43.1631 132.127H63.0549L60.2895 137.484C58.1521 136.283 54.6541 135.683 49.7955 135.683V148.33H61.9146L59.2787 153.599C57.2294 152.517 54.0675 151.974 49.7928 151.974V157.77C49.7928 161.722 50.261 165.162 51.1975 168.09H43.1631C44.0996 165.165 44.5678 161.725 44.5678 157.772Z" fill="white"/>
<path d="M72.2763 149.914V161.287C72.2763 163.804 72.6867 166.074 73.5048 168.093H66.0846C66.8751 166.044 67.269 163.774 67.269 161.287V149.914C67.269 147.427 66.8751 145.157 66.0846 143.108H73.5048C72.6867 145.127 72.2763 147.397 72.2763 149.914ZM72.2763 133.774C72.9484 134.462 73.2872 135.289 73.2872 136.255C73.2872 137.222 72.9511 138.049 72.2763 138.737C71.6015 139.426 70.7835 139.77 69.8167 139.77C68.8196 139.77 67.9796 139.426 67.291 138.737C66.6024 138.049 66.2581 137.222 66.2581 136.255C66.2581 135.289 66.6024 134.462 67.291 133.774C67.9796 133.085 68.8196 132.741 69.8167 132.741C70.7835 132.744 71.6043 133.088 72.2763 133.774Z" fill="white"/>
<path d="M79.8728 161.287V149.87C79.8728 147.41 79.5368 145.157 78.8619 143.108H85.1418C84.9655 144.133 84.8774 145.215 84.8774 146.358V147.675L88.8299 143.502C89.8848 142.976 91.1573 142.712 92.6501 142.712C94.6112 142.712 96.2142 143.356 97.4592 144.642C98.7041 145.931 99.3266 147.73 99.3266 150.044V161.284C99.3266 163.771 99.7205 166.041 100.511 168.09H93.0908C93.9088 166.071 94.3192 163.801 94.3192 161.284V151.275C94.3192 150.104 93.8868 149.159 93.0247 148.443C92.1598 147.727 91.0554 147.366 89.7085 147.366C88.2735 147.366 86.6622 147.923 84.8774 149.036V161.287C84.8774 163.804 85.2878 166.074 86.1058 168.093H78.6857C79.4789 166.044 79.8728 163.774 79.8728 161.287Z" fill="white"/>
<path d="M104.243 157.334C104.185 155.021 104.747 152.724 105.934 150.44C107.119 148.157 108.738 146.298 110.787 144.863C112.837 143.428 114.96 142.739 117.155 142.8C118.356 142.8 119.395 142.99 120.273 143.37V141.439C120.273 138.043 119.879 135.366 119.089 133.405L126.247 132C125.603 134.986 125.281 138.894 125.281 143.725V161.29C125.281 163.777 125.675 166.046 126.465 168.095H120.273V164.578C119.015 166.013 117.91 167.008 116.957 167.564C116.004 168.12 114.842 168.398 113.467 168.398C110.892 168.456 108.694 167.388 106.882 165.192C105.064 162.997 104.185 160.378 104.243 157.334ZM120.271 163.218V148.639C118.805 147.234 117.02 146.532 114.913 146.532C113.509 146.532 112.338 146.926 111.402 147.716C110.261 149.884 109.688 152.415 109.688 155.313C109.688 158.064 110.383 160.232 111.773 161.813C113.164 163.394 115.015 164.184 117.329 164.184C118.384 164.184 119.364 163.862 120.271 163.218Z" fill="white"/>
<path d="M149.913 155.401L135.904 155.797C136.02 158.579 136.722 160.642 138.011 161.989C139.3 163.336 141.041 164.008 143.236 164.008C145.197 164.008 147.321 163.204 149.604 161.593L149.692 161.681L147.979 167.17C146.252 167.991 144.319 168.398 142.184 168.398C138.466 168.398 135.59 167.33 133.555 165.192C131.519 163.055 130.503 159.954 130.503 155.883C130.503 151.815 131.536 148.6 133.599 146.245C135.662 143.89 138.276 142.712 141.438 142.712C144.219 142.712 146.349 143.582 147.828 145.325C149.307 147.069 150.045 149.504 150.045 152.635C150.042 153.776 150.001 154.698 149.913 155.401ZM135.948 152.635H145.828C145.828 150.498 145.412 148.873 144.577 147.76C143.743 146.648 142.52 146.091 140.911 146.091C138.011 146.091 136.359 148.273 135.948 152.635Z" fill="white"/>
<path d="M155.358 161.287V149.87C155.358 147.41 155.022 145.157 154.347 143.108H160.627C160.451 144.133 160.363 145.215 160.363 146.358V148.95C161.652 146.697 162.844 145.108 163.94 144.185C165.039 143.262 166.29 142.802 167.695 142.802C168.485 142.802 169.099 142.904 169.54 143.111L168.882 149.215C167.535 148.397 166.364 147.986 165.37 147.986C163.525 147.986 161.858 148.851 160.365 150.578V161.292C160.365 163.81 160.776 166.079 161.594 168.098H154.174C154.961 166.044 155.358 163.774 155.358 161.287Z" fill="white"/>
</svg>
