<svg width="106" height="114" viewBox="0 0 106 114" fill="none" xmlns="http://www.w3.org/2000/svg">
<mask id="mask0_57_840" style="mask-type:luminance" maskUnits="userSpaceOnUse" x="1" y="11" width="48" height="68">
<path d="M40.2554 74.2271C42.6041 75.8886 45.2634 77.0593 48.0745 77.6695C38.7073 79.4927 28.997 77.8018 20.7966 72.9194C12.5962 68.0369 6.47974 60.3049 3.61444 51.1986C-4.48084 25.3542 9.18815 20.091 29.0132 11.0662C25.1365 15.7749 22.3278 21.2695 20.7815 27.1704C19.2351 33.0712 18.9879 39.2376 20.0569 45.2435C21.1259 51.2493 23.4856 56.9513 26.973 61.9555C30.4603 66.9596 34.9922 71.1466 40.2554 74.2271Z" fill="white"/>
</mask>
<g mask="url(#mask0_57_840)">
<path d="M48.0745 11.0662H-4.48083V79.086H48.0745V11.0662Z" fill="#012269"/>
</g>
<mask id="mask1_57_840" style="mask-type:luminance" maskUnits="userSpaceOnUse" x="36" y="16" width="70" height="44">
<path d="M43.6899 37.4673C41.0771 38.6714 38.7337 40.3901 36.7999 42.5206C39.9054 33.4936 46.2245 25.9265 54.5513 21.2632C62.8781 16.5999 72.6297 15.167 81.9452 17.2378C108.365 23.1468 106.084 37.6213 103.986 59.3102C101.849 53.5972 98.4967 48.4166 94.1618 44.1264C89.8268 39.8362 84.6125 36.5388 78.8791 34.4619C73.1456 32.3851 67.0298 31.5784 60.9542 32.0976C54.8786 32.6168 48.9882 34.4494 43.6899 37.4689" fill="white"/>
</mask>
<g mask="url(#mask1_57_840)">
<path d="M108.365 15.973H36.7999V59.3088H108.365V15.973Z" fill="#012269"/>
</g>
<mask id="mask2_57_840" style="mask-type:luminance" maskUnits="userSpaceOnUse" x="0" y="54" width="69" height="44">
<path d="M61.4697 76.2109C64.0825 75.0071 66.4258 73.2887 68.3597 71.1583C65.2542 80.1854 58.9351 87.7525 50.6083 92.4158C42.2815 97.0791 32.5299 98.512 23.2144 96.4412C-3.20587 90.5338 -0.928108 76.0593 1.17307 54.3736C3.31085 60.0866 6.66304 65.2671 10.998 69.5572C15.333 73.8473 20.5473 77.1446 26.2807 79.2214C32.0142 81.2981 38.1299 82.1048 44.2055 81.5856C50.281 81.0663 56.1714 79.2336 61.4697 76.2141" fill="white"/>
</mask>
<g mask="url(#mask2_57_840)">
<path d="M68.3597 54.3704H-3.20581V97.7062H68.3597V54.3704Z" fill="#012269"/>
</g>
<mask id="mask3_57_840" style="mask-type:luminance" maskUnits="userSpaceOnUse" x="22" y="0" width="59" height="64">
<path d="M31.3655 54.8598C31.1015 57.7254 31.4175 60.6148 32.2946 63.3555C26.0314 56.1517 22.6391 46.8929 22.7651 37.3463C22.891 27.7997 26.5264 18.6337 32.9774 11.5978C51.3024 -8.3368 62.6936 0.872802 80.4183 13.5369C74.4038 12.5329 68.243 12.8472 62.3618 14.4582C56.4805 16.0693 51.019 18.9386 46.3548 22.8678C41.6905 26.7971 37.9346 31.6927 35.3466 37.2163C32.7586 42.7398 31.4003 48.7597 31.3655 54.8598Z" fill="white"/>
</mask>
<g mask="url(#mask3_57_840)">
<path d="M80.4216 -8.33842H22.3152V63.3523H80.4216V-8.33842Z" fill="#012269"/>
</g>
<mask id="mask4_57_840" style="mask-type:luminance" maskUnits="userSpaceOnUse" x="57" y="35" width="47" height="68">
<path d="M64.9033 39.4519C62.5546 37.7906 59.8953 36.6198 57.0843 36.0095C66.451 34.1861 76.1609 35.8766 84.3613 40.7584C92.5616 45.6401 98.6784 53.3714 101.544 62.4771C109.64 88.3215 95.9706 93.5847 76.1447 102.61C80.0215 97.9009 82.8302 92.4064 84.3766 86.5055C85.923 80.6047 86.1703 74.4383 85.1014 68.4325C84.0325 62.4267 81.6728 56.7246 78.1855 51.7204C74.6983 46.7162 70.1665 42.5292 64.9033 39.4486" fill="white"/>
</mask>
<g mask="url(#mask4_57_840)">
<path d="M109.64 34.593H57.0843V102.613H109.64V34.593Z" fill="#012269"/>
</g>
<mask id="mask5_57_840" style="mask-type:luminance" maskUnits="userSpaceOnUse" x="24" y="50" width="59" height="64">
<path d="M73.7941 58.8232C74.0581 55.9576 73.7421 53.0682 72.865 50.3275C79.1269 57.5314 82.5182 66.7897 82.3918 76.3355C82.2654 85.8814 78.6302 95.0466 72.1797 102.082C53.8548 122.017 42.4635 112.807 24.7388 100.143C30.7533 101.147 36.914 100.833 42.7953 99.2226C48.6766 97.612 54.1383 94.743 58.8028 90.814C63.4673 86.8851 67.2235 81.9898 69.8118 76.4664C72.4001 70.943 73.7588 64.9233 73.7941 58.8232Z" fill="white"/>
</mask>
<g mask="url(#mask5_57_840)">
<path d="M82.8451 50.3276H24.7388V122.018H82.8451V50.3276Z" fill="#012269"/>
</g>
</svg>
