<svg width="25" height="25" viewBox="0 0 25 25" fill="none" xmlns="http://www.w3.org/2000/svg">
<path fill-rule="evenodd" clip-rule="evenodd" d="M12.6998 23.1732C19.272 23.1732 24.5998 18.0753 24.5998 11.7866C24.5998 5.49796 19.272 0.399994 12.6998 0.399994C6.12762 0.399994 0.799805 5.49796 0.799805 11.7866C0.799805 13.4804 1.23633 15.2605 2.10937 17.1269L2.30312 17.5282C2.9592 18.846 2.99414 20.3868 2.39846 21.7329C1.84605 22.9812 1.75203 23.7569 2.11641 24.0601C2.51547 24.3921 3.66433 24.1332 5.563 23.2832L6.07531 23.0481C7.05658 22.5873 8.15967 22.4615 9.21555 22.6854L9.47844 22.7487C10.5278 23.0317 11.6016 23.1732 12.6998 23.1732Z" fill="#012269"/>
</svg>
