<svg width="170" height="198" viewBox="0 0 170 198" fill="none" xmlns="http://www.w3.org/2000/svg">
<mask id="mask0_57_839" style="mask-type:luminance" maskUnits="userSpaceOnUse" x="33" y="11" width="48" height="68">
<path d="M72.2554 74.2271C74.6041 75.8886 77.2634 77.0593 80.0745 77.6695C70.7073 79.4927 60.997 77.8018 52.7966 72.9194C44.5962 68.0369 38.4797 60.3049 35.6144 51.1986C27.5192 25.3542 41.1881 20.091 61.0132 11.0662C57.1365 15.7749 54.3278 21.2695 52.7815 27.1704C51.2351 33.0712 50.9879 39.2376 52.0569 45.2435C53.1259 51.2493 55.4856 56.9513 58.973 61.9555C62.4603 66.9596 66.9922 71.1466 72.2554 74.2271Z" fill="white"/>
</mask>
<g mask="url(#mask0_57_839)">
<path d="M80.0745 11.0662H27.5192V79.086H80.0745V11.0662Z" fill="#012269"/>
</g>
<mask id="mask1_57_839" style="mask-type:luminance" maskUnits="userSpaceOnUse" x="68" y="16" width="70" height="44">
<path d="M75.6899 37.4673C73.0771 38.6714 70.7337 40.3901 68.7999 42.5206C71.9054 33.4936 78.2245 25.9265 86.5513 21.2632C94.8781 16.5999 104.63 15.167 113.945 17.2378C140.365 23.1468 138.084 37.6213 135.986 59.3102C133.849 53.5972 130.497 48.4166 126.162 44.1264C121.827 39.8362 116.612 36.5388 110.879 34.4619C105.146 32.3851 99.0298 31.5784 92.9542 32.0976C86.8786 32.6168 80.9882 34.4494 75.6899 37.4689" fill="white"/>
</mask>
<g mask="url(#mask1_57_839)">
<path d="M140.365 15.973H68.7999V59.3088H140.365V15.973Z" fill="#012269"/>
</g>
<mask id="mask2_57_839" style="mask-type:luminance" maskUnits="userSpaceOnUse" x="32" y="54" width="69" height="44">
<path d="M93.4697 76.2109C96.0825 75.0071 98.4258 73.2887 100.36 71.1583C97.2542 80.1854 90.9351 87.7525 82.6083 92.4158C74.2815 97.0791 64.5299 98.512 55.2144 96.4412C28.7941 90.5338 31.0719 76.0593 33.1731 54.3736C35.3109 60.0866 38.663 65.2671 42.998 69.5572C47.333 73.8473 52.5473 77.1446 58.2807 79.2214C64.0142 81.2981 70.1299 82.1048 76.2055 81.5856C82.281 81.0663 88.1714 79.2336 93.4697 76.2141" fill="white"/>
</mask>
<g mask="url(#mask2_57_839)">
<path d="M100.36 54.3704H28.7942V97.7062H100.36V54.3704Z" fill="#012269"/>
</g>
<mask id="mask3_57_839" style="mask-type:luminance" maskUnits="userSpaceOnUse" x="54" y="0" width="59" height="64">
<path d="M63.3655 54.8598C63.1015 57.7254 63.4175 60.6148 64.2946 63.3555C58.0314 56.1517 54.6391 46.8929 54.7651 37.3463C54.891 27.7997 58.5264 18.6337 64.9774 11.5978C83.3024 -8.3368 94.6936 0.872802 112.418 13.5369C106.404 12.5329 100.243 12.8472 94.3618 14.4582C88.4805 16.0693 83.019 18.9386 78.3548 22.8678C73.6905 26.7971 69.9346 31.6927 67.3466 37.2163C64.7586 42.7398 63.4003 48.7597 63.3655 54.8598Z" fill="white"/>
</mask>
<g mask="url(#mask3_57_839)">
<path d="M112.422 -8.33842H54.3152V63.3523H112.422V-8.33842Z" fill="#012269"/>
</g>
<mask id="mask4_57_839" style="mask-type:luminance" maskUnits="userSpaceOnUse" x="89" y="35" width="47" height="68">
<path d="M96.9033 39.4519C94.5546 37.7906 91.8953 36.6198 89.0843 36.0095C98.451 34.1861 108.161 35.8766 116.361 40.7584C124.562 45.6401 130.678 53.3714 133.544 62.4771C141.64 88.3215 127.971 93.5847 108.145 102.61C112.022 97.9009 114.83 92.4064 116.377 86.5055C117.923 80.6047 118.17 74.4383 117.101 68.4325C116.032 62.4267 113.673 56.7246 110.186 51.7204C106.698 46.7162 102.166 42.5292 96.9033 39.4486" fill="white"/>
</mask>
<g mask="url(#mask4_57_839)">
<path d="M141.64 34.593H89.0843V102.613H141.64V34.593Z" fill="#012269"/>
</g>
<mask id="mask5_57_839" style="mask-type:luminance" maskUnits="userSpaceOnUse" x="56" y="50" width="59" height="64">
<path d="M105.794 58.8232C106.058 55.9576 105.742 53.0682 104.865 50.3275C111.127 57.5314 114.518 66.7897 114.392 76.3355C114.265 85.8814 110.63 95.0466 104.18 102.082C85.8548 122.017 74.4635 112.807 56.7388 100.143C62.7533 101.147 68.914 100.833 74.7953 99.2226C80.6766 97.612 86.1383 94.743 90.8028 90.814C95.4673 86.8851 99.2235 81.9898 101.812 76.4664C104.4 70.943 105.759 64.9233 105.794 58.8232Z" fill="white"/>
</mask>
<g mask="url(#mask5_57_839)">
<path d="M114.845 50.3276H56.7388V122.018H114.845V50.3276Z" fill="#012269"/>
</g>
<path d="M1.40471 157.772V142.447C1.40471 138.495 0.936472 135.055 0 132.127H19.4538L16.862 137.792C14.0526 136.388 10.64 135.685 6.62967 135.685V147.981H18.1786L15.1047 153.162C12.7333 152.255 9.90732 151.743 6.62967 151.625V164.578C12.1631 164.578 17.0961 163.76 21.4287 162.119L21.5168 162.207L18.9691 168.09H0C0.936472 165.165 1.40471 161.725 1.40471 157.772Z" fill="black"/>
<path d="M39.7835 162.559L39.8717 162.647L38.2907 168.093H22.131C24.4419 164.228 26.538 160.116 28.4109 155.753L32.2312 146.796H28.0143C25.585 146.796 23.7561 147.366 22.5249 148.509L22.4368 148.421L23.5798 143.105H39.431C37.3817 147.146 35.4344 151.316 33.5918 155.621L29.7715 164.405H32.1871C35.3766 164.405 37.9078 163.788 39.7835 162.559Z" fill="black"/>
<path d="M44.5678 157.772V142.447C44.5678 138.495 44.0995 135.055 43.1631 132.127H63.0548L60.2895 137.484C58.1521 136.283 54.6541 135.683 49.7955 135.683V148.33H61.9145L59.2786 153.599C57.2294 152.517 54.0675 151.974 49.7927 151.974V157.77C49.7927 161.722 50.261 165.162 51.1974 168.09H43.1631C44.0995 165.165 44.5678 161.725 44.5678 157.772Z" fill="black"/>
<path d="M72.2763 149.914V161.287C72.2763 163.804 72.6867 166.074 73.5048 168.093H66.0846C66.8751 166.044 67.269 163.774 67.269 161.287V149.914C67.269 147.427 66.8751 145.157 66.0846 143.108H73.5048C72.6867 145.127 72.2763 147.397 72.2763 149.914ZM72.2763 133.774C72.9484 134.462 73.2872 135.289 73.2872 136.255C73.2872 137.222 72.9511 138.049 72.2763 138.737C71.6015 139.426 70.7835 139.77 69.8167 139.77C68.8197 139.77 67.9796 139.426 67.291 138.737C66.6024 138.049 66.2581 137.222 66.2581 136.255C66.2581 135.289 66.6024 134.462 67.291 133.774C67.9796 133.085 68.8197 132.741 69.8167 132.741C70.7835 132.744 71.6043 133.088 72.2763 133.774Z" fill="black"/>
<path d="M79.8728 161.287V149.87C79.8728 147.41 79.5368 145.157 78.8619 143.108H85.1418C84.9655 144.133 84.8774 145.215 84.8774 146.358V147.675L88.8299 143.502C89.8848 142.976 91.1573 142.712 92.6501 142.712C94.6112 142.712 96.2142 143.356 97.4592 144.642C98.7041 145.931 99.3266 147.73 99.3266 150.044V161.284C99.3266 163.771 99.7205 166.041 100.511 168.09H93.0908C93.9088 166.071 94.3192 163.801 94.3192 161.284V151.275C94.3192 150.104 93.8868 149.159 93.0247 148.443C92.1598 147.727 91.0554 147.366 89.7085 147.366C88.2735 147.366 86.6622 147.923 84.8774 149.036V161.287C84.8774 163.804 85.2878 166.074 86.1058 168.093H78.6857C79.4789 166.044 79.8728 163.774 79.8728 161.287Z" fill="black"/>
<path d="M104.243 157.334C104.185 155.021 104.747 152.724 105.934 150.44C107.119 148.157 108.738 146.298 110.787 144.863C112.837 143.428 114.96 142.739 117.155 142.8C118.356 142.8 119.395 142.99 120.273 143.37V141.439C120.273 138.043 119.879 135.366 119.089 133.405L126.247 132C125.603 134.986 125.281 138.894 125.281 143.725V161.29C125.281 163.777 125.675 166.046 126.465 168.095H120.273V164.578C119.015 166.013 117.91 167.008 116.957 167.564C116.004 168.12 114.842 168.398 113.467 168.398C110.892 168.456 108.694 167.388 106.882 165.192C105.064 162.997 104.185 160.378 104.243 157.334ZM120.271 163.218V148.639C118.805 147.234 117.02 146.532 114.913 146.532C113.509 146.532 112.338 146.926 111.402 147.716C110.261 149.884 109.688 152.415 109.688 155.313C109.688 158.064 110.383 160.232 111.773 161.813C113.164 163.394 115.015 164.184 117.329 164.184C118.384 164.184 119.364 163.862 120.271 163.218Z" fill="black"/>
<path d="M149.913 155.401L135.904 155.797C136.02 158.579 136.722 160.642 138.011 161.989C139.3 163.336 141.041 164.008 143.236 164.008C145.197 164.008 147.321 163.204 149.604 161.593L149.692 161.681L147.979 167.17C146.252 167.991 144.319 168.398 142.184 168.398C138.466 168.398 135.59 167.33 133.555 165.192C131.519 163.055 130.503 159.954 130.503 155.883C130.503 151.815 131.536 148.6 133.599 146.245C135.662 143.89 138.276 142.712 141.438 142.712C144.219 142.712 146.349 143.582 147.828 145.325C149.307 147.069 150.045 149.504 150.045 152.635C150.042 153.776 150.001 154.698 149.913 155.401ZM135.948 152.635H145.828C145.828 150.498 145.412 148.873 144.578 147.76C143.743 146.648 142.52 146.091 140.911 146.091C138.011 146.091 136.359 148.273 135.948 152.635Z" fill="black"/>
<path d="M155.358 161.287V149.87C155.358 147.41 155.022 145.157 154.347 143.108H160.627C160.451 144.133 160.363 145.215 160.363 146.358V148.95C161.652 146.697 162.844 145.108 163.94 144.185C165.039 143.262 166.29 142.802 167.695 142.802C168.485 142.802 169.099 142.904 169.54 143.111L168.882 149.215C167.535 148.397 166.364 147.986 165.37 147.986C163.525 147.986 161.858 148.851 160.365 150.578V161.292C160.365 163.81 160.776 166.079 161.594 168.098H154.174C154.961 166.044 155.358 163.774 155.358 161.287Z" fill="black"/>
<path d="M35.8225 192V179.4H44.8405V180.624H37.2085V185.124H42.2125V186.33H37.2085V192H35.8225ZM46.2404 192V182.982H47.5724V192H46.2404ZM46.9064 181.254C46.6664 181.254 46.4564 181.164 46.2764 180.984C46.0964 180.804 46.0064 180.594 46.0064 180.354C46.0064 180.102 46.0964 179.892 46.2764 179.724C46.4564 179.544 46.6664 179.454 46.9064 179.454C47.1584 179.454 47.3684 179.544 47.5364 179.724C47.7164 179.892 47.8064 180.102 47.8064 180.354C47.8064 180.594 47.7164 180.804 47.5364 180.984C47.3684 181.164 47.1584 181.254 46.9064 181.254ZM49.844 192V182.982H51.176V184.044C51.884 183.216 52.832 182.802 54.02 182.802C54.704 182.802 55.304 182.952 55.82 183.252C56.348 183.54 56.756 183.948 57.044 184.476C57.344 184.992 57.494 185.598 57.494 186.294V192H56.18V186.564C56.18 185.76 55.952 185.13 55.496 184.674C55.052 184.206 54.44 183.972 53.66 183.972C53.12 183.972 52.64 184.092 52.22 184.332C51.8 184.572 51.452 184.914 51.176 185.358V192H49.844ZM63.8449 192.144C63.0049 192.144 62.2369 191.94 61.5409 191.532C60.8569 191.112 60.3109 190.554 59.9029 189.858C59.5069 189.15 59.3089 188.358 59.3089 187.482C59.3089 186.606 59.5069 185.82 59.9029 185.124C60.3109 184.428 60.8569 183.876 61.5409 183.468C62.2369 183.048 63.0109 182.838 63.8629 182.838C64.3909 182.838 64.9009 182.928 65.3929 183.108C65.8849 183.276 66.3349 183.528 66.7429 183.864V179.4L68.0749 179.094V192H66.7609V191.046C65.9689 191.778 64.9969 192.144 63.8449 192.144ZM63.9709 190.974C64.5349 190.974 65.0569 190.866 65.5369 190.65C66.0289 190.422 66.4309 190.11 66.7429 189.714V185.25C66.4309 184.866 66.0289 184.566 65.5369 184.35C65.0569 184.122 64.5349 184.008 63.9709 184.008C63.3469 184.008 62.7769 184.158 62.2609 184.458C61.7569 184.758 61.3549 185.172 61.0549 185.7C60.7669 186.216 60.6229 186.804 60.6229 187.464C60.6229 188.124 60.7669 188.718 61.0549 189.246C61.3549 189.774 61.7569 190.194 62.2609 190.506C62.7769 190.818 63.3469 190.974 63.9709 190.974ZM74.2072 192V182.982H75.5392V192H74.2072ZM74.8732 181.254C74.6332 181.254 74.4232 181.164 74.2432 180.984C74.0632 180.804 73.9732 180.594 73.9732 180.354C73.9732 180.102 74.0632 179.892 74.2432 179.724C74.4232 179.544 74.6332 179.454 74.8732 179.454C75.1252 179.454 75.3352 179.544 75.5032 179.724C75.6832 179.892 75.7732 180.102 75.7732 180.354C75.7732 180.594 75.6832 180.804 75.5032 180.984C75.3352 181.164 75.1252 181.254 74.8732 181.254ZM81.3568 192.18C80.5768 192.18 79.9768 191.994 79.5568 191.622C79.1368 191.25 78.9268 190.71 78.9268 190.002V184.116H76.9828V182.982H78.9268V180.696L80.2408 180.354V182.982H82.9588V184.116H80.2408V189.66C80.2408 190.14 80.3488 190.488 80.5648 190.704C80.7808 190.908 81.1348 191.01 81.6268 191.01C81.8788 191.01 82.1008 190.992 82.2928 190.956C82.4968 190.92 82.7128 190.86 82.9408 190.776V191.946C82.7128 192.03 82.4548 192.09 82.1668 192.126C81.8908 192.162 81.6208 192.18 81.3568 192.18ZM92.4822 192.162C91.6182 192.162 90.8322 191.958 90.1242 191.55C89.4282 191.13 88.8702 190.566 88.4502 189.858C88.0422 189.15 87.8382 188.358 87.8382 187.482C87.8382 186.618 88.0362 185.838 88.4322 185.142C88.8282 184.434 89.3622 183.876 90.0342 183.468C90.7062 183.048 91.4562 182.838 92.2842 182.838C93.0882 182.838 93.8082 183.048 94.4442 183.468C95.0922 183.876 95.6022 184.434 95.9742 185.142C96.3582 185.838 96.5502 186.618 96.5502 187.482V187.896H89.1522C89.2242 188.484 89.4102 189.012 89.7102 189.48C90.0222 189.948 90.4242 190.32 90.9162 190.596C91.4082 190.86 91.9482 190.992 92.5362 190.992C93.0042 190.992 93.4602 190.92 93.9042 190.776C94.3482 190.632 94.7202 190.428 95.0202 190.164L95.8482 191.046C95.3442 191.418 94.8162 191.7 94.2642 191.892C93.7242 192.072 93.1302 192.162 92.4822 192.162ZM89.1882 186.834H95.2182C95.1462 186.294 94.9662 185.814 94.6782 185.394C94.4022 184.962 94.0542 184.626 93.6342 184.386C93.2142 184.134 92.7522 184.008 92.2482 184.008C91.7322 184.008 91.2582 184.128 90.8262 184.368C90.3942 184.608 90.0342 184.944 89.7462 185.376C89.4582 185.796 89.2722 186.282 89.1882 186.834ZM101.081 192.162C100.421 192.162 99.8385 192.048 99.3345 191.82C98.8425 191.592 98.4525 191.274 98.1645 190.866C97.8885 190.458 97.7505 189.984 97.7505 189.444C97.7505 188.592 98.0745 187.92 98.7225 187.428C99.3705 186.936 100.247 186.69 101.351 186.69C102.323 186.69 103.205 186.894 103.997 187.302V186.114C103.997 185.394 103.793 184.854 103.385 184.494C102.977 184.122 102.383 183.936 101.603 183.936C101.159 183.936 100.709 184.002 100.253 184.134C99.8085 184.254 99.3165 184.452 98.7765 184.728L98.2725 183.702C98.9205 183.39 99.5205 183.162 100.073 183.018C100.625 182.874 101.177 182.802 101.729 182.802C102.869 182.802 103.745 183.072 104.357 183.612C104.981 184.152 105.293 184.926 105.293 185.934V192H103.997V191.118C103.589 191.466 103.139 191.73 102.647 191.91C102.167 192.078 101.645 192.162 101.081 192.162ZM99.0285 189.408C99.0285 189.912 99.2385 190.326 99.6585 190.65C100.091 190.962 100.643 191.118 101.315 191.118C101.855 191.118 102.347 191.034 102.791 190.866C103.235 190.698 103.637 190.434 103.997 190.074V188.382C103.625 188.13 103.229 187.95 102.809 187.842C102.389 187.722 101.915 187.662 101.387 187.662C100.667 187.662 100.091 187.824 99.6585 188.148C99.2385 188.46 99.0285 188.88 99.0285 189.408ZM110.398 192.18C109.654 192.18 108.952 192.06 108.292 191.82C107.644 191.568 107.08 191.22 106.6 190.776L107.41 189.912C107.83 190.296 108.292 190.596 108.796 190.812C109.3 191.016 109.816 191.118 110.344 191.118C111.064 191.118 111.652 190.968 112.108 190.668C112.564 190.368 112.792 189.978 112.792 189.498C112.792 189.102 112.654 188.796 112.378 188.58C112.114 188.352 111.694 188.196 111.118 188.112L109.552 187.896C108.652 187.764 107.98 187.494 107.536 187.086C107.104 186.678 106.888 186.126 106.888 185.43C106.888 184.926 107.032 184.476 107.32 184.08C107.608 183.684 108.004 183.372 108.508 183.144C109.024 182.916 109.612 182.802 110.272 182.802C110.932 182.802 111.55 182.898 112.126 183.09C112.702 183.282 113.266 183.582 113.818 183.99L113.116 184.89C112.612 184.542 112.12 184.29 111.64 184.134C111.172 183.966 110.692 183.882 110.2 183.882C109.576 183.882 109.072 184.02 108.688 184.296C108.304 184.572 108.112 184.932 108.112 185.376C108.112 185.784 108.244 186.096 108.508 186.312C108.772 186.516 109.198 186.66 109.786 186.744L111.352 186.96C112.252 187.08 112.924 187.344 113.368 187.752C113.824 188.16 114.052 188.718 114.052 189.426C114.052 189.942 113.89 190.41 113.566 190.83C113.242 191.25 112.804 191.58 112.252 191.82C111.712 192.06 111.094 192.18 110.398 192.18ZM115.753 195.852C115.585 195.852 115.423 195.84 115.267 195.816C115.123 195.804 115.003 195.786 114.907 195.762V194.556C115.111 194.604 115.363 194.628 115.663 194.628C116.455 194.628 117.055 194.16 117.463 193.224L118.003 191.982L114.331 182.982H115.807L118.723 190.38L121.873 182.982H123.313L118.813 193.404C118.561 193.98 118.291 194.448 118.003 194.808C117.715 195.168 117.385 195.432 117.013 195.6C116.653 195.768 116.233 195.852 115.753 195.852ZM124.313 192.108C124.061 192.108 123.845 192.018 123.665 191.838C123.485 191.658 123.395 191.442 123.395 191.19C123.395 190.938 123.485 190.722 123.665 190.542C123.845 190.362 124.061 190.272 124.313 190.272C124.565 190.272 124.781 190.362 124.961 190.542C125.141 190.722 125.231 190.938 125.231 191.19C125.231 191.442 125.141 191.658 124.961 191.838C124.781 192.018 124.565 192.108 124.313 192.108ZM128.813 192.108C128.561 192.108 128.345 192.018 128.165 191.838C127.985 191.658 127.895 191.442 127.895 191.19C127.895 190.938 127.985 190.722 128.165 190.542C128.345 190.362 128.561 190.272 128.813 190.272C129.065 190.272 129.281 190.362 129.461 190.542C129.641 190.722 129.731 190.938 129.731 191.19C129.731 191.442 129.641 191.658 129.461 191.838C129.281 192.018 129.065 192.108 128.813 192.108ZM133.313 192.108C133.061 192.108 132.845 192.018 132.665 191.838C132.485 191.658 132.395 191.442 132.395 191.19C132.395 190.938 132.485 190.722 132.665 190.542C132.845 190.362 133.061 190.272 133.313 190.272C133.565 190.272 133.781 190.362 133.961 190.542C134.141 190.722 134.231 190.938 134.231 191.19C134.231 191.442 134.141 191.658 133.961 191.838C133.781 192.018 133.565 192.108 133.313 192.108Z" fill="#012269"/>
</svg>
