<svg width="374" height="152" viewBox="0 0 374 152" fill="none" xmlns="http://www.w3.org/2000/svg">
<g clip-path="url(#clip0_84_1183)">
<path d="M254.63 115.578H129.859C129.705 115.578 129.553 115.548 129.412 115.489C129.27 115.43 129.142 115.344 129.034 115.236C128.925 115.127 128.84 114.998 128.782 114.857C128.725 114.715 128.695 114.564 128.697 114.411V39.8622C128.697 37.9782 129.449 36.1713 130.787 34.8391C132.125 33.5069 133.94 32.7585 135.832 32.7585H248.667C250.559 32.7585 252.374 33.5069 253.712 34.8391C255.05 36.1713 255.802 37.9782 255.802 39.8622V114.462C255.791 114.763 255.663 115.049 255.444 115.257C255.225 115.466 254.933 115.581 254.63 115.578Z" fill="#F2F2F2"/>
<path d="M224.612 23.5236C224.821 22.6964 225.273 21.9496 225.908 21.3778C226.544 20.806 227.336 20.4347 228.184 20.311C229.032 20.1873 229.897 20.3167 230.671 20.6828C231.445 21.0489 232.093 21.6353 232.532 22.3678C232.971 23.1004 233.182 23.9461 233.139 24.7981C233.095 25.6501 232.798 26.47 232.287 27.1543C231.775 27.8385 231.071 28.3563 230.264 28.6421C229.456 28.9279 228.582 28.969 227.751 28.76C227.199 28.6225 226.68 28.3778 226.223 28.04C225.766 27.7021 225.381 27.2777 225.089 26.7911C224.797 26.3046 224.605 25.7655 224.523 25.2047C224.441 24.644 224.471 24.0727 224.612 23.5236Z" fill="#E6E6E6"/>
<path d="M204.124 21.7679V27.3596C204.123 27.4392 204.148 27.5171 204.193 27.5825C204.239 27.648 204.304 27.6977 204.379 27.7249L208.813 29.2472C209.318 31.3999 210.172 33.4564 211.341 35.3361L209.302 39.5273C209.268 39.5986 209.256 39.6786 209.269 39.7567C209.281 39.8348 209.318 39.907 209.373 39.9637L213.349 43.9316C213.406 43.9868 213.478 44.0232 213.557 44.0359C213.635 44.0486 213.715 44.037 213.787 44.0027L218.007 41.973C219.895 43.1385 221.96 43.9918 224.122 44.4999L225.651 48.9043C225.676 48.9819 225.725 49.0495 225.791 49.0971C225.857 49.1447 225.937 49.1696 226.018 49.1681H231.635C231.715 49.1687 231.793 49.1447 231.859 49.0993C231.924 49.0538 231.974 48.9893 232.002 48.9144L233.53 44.5101C235.692 43.9991 237.757 43.1459 239.646 41.9832L243.856 44.0128C243.927 44.0472 244.008 44.0588 244.086 44.0461C244.165 44.0334 244.237 43.9969 244.294 43.9418L248.28 39.984C248.335 39.9273 248.372 39.8551 248.384 39.777C248.397 39.6989 248.385 39.6189 248.351 39.5476L246.312 35.3463C247.483 33.4663 248.34 31.4101 248.85 29.2573L253.274 27.7351C253.351 27.7129 253.419 27.6661 253.467 27.602C253.515 27.5378 253.54 27.4598 253.539 27.3799V21.7984C253.538 21.7191 253.514 21.6418 253.468 21.5767C253.423 21.5116 253.359 21.4615 253.284 21.433L248.85 19.9108C248.345 17.7581 247.491 15.7016 246.323 13.8219L248.361 9.63067C248.396 9.55943 248.407 9.47935 248.394 9.40129C248.382 9.32323 248.345 9.25097 248.29 9.1943L244.315 5.23649C244.26 5.17834 244.188 5.13912 244.109 5.12452C244.03 5.10992 243.948 5.12071 243.876 5.15531L239.656 7.18495C237.768 6.01951 235.703 5.16616 233.541 4.65804L232.002 0.284161C231.976 0.209044 231.929 0.143432 231.865 0.0962283C231.801 0.0490248 231.724 0.0225146 231.645 0.0203056H226.018C225.938 0.0196927 225.86 0.0437553 225.794 0.0891827C225.729 0.13461 225.679 0.199174 225.651 0.274011L224.122 4.68848C221.96 5.19156 219.895 6.04159 218.007 7.20525L213.797 5.1756C213.726 5.14127 213.645 5.12967 213.567 5.14238C213.488 5.15509 213.416 5.19148 213.359 5.24664L209.424 9.16385C209.369 9.22053 209.332 9.29279 209.32 9.37085C209.307 9.4489 209.318 9.52898 209.353 9.60023L211.392 13.8016C210.221 15.6815 209.364 17.7378 208.854 19.8905L204.43 21.4128C204.347 21.4304 204.272 21.4747 204.217 21.5389C204.161 21.6031 204.129 21.6835 204.124 21.7679ZM218.914 14.6642C220.86 12.7326 223.337 11.4185 226.033 10.8879C228.729 10.3573 231.522 10.6339 234.06 11.6828C236.598 12.7318 238.767 14.506 240.293 16.7815C241.818 19.0569 242.633 21.7315 242.633 24.4674C242.633 24.9443 242.633 25.4111 242.561 25.8678C242.353 27.8848 241.702 29.8317 240.655 31.5711C240.634 31.6089 240.606 31.642 240.571 31.6683C240.537 31.6946 240.497 31.7136 240.455 31.724C240.413 31.7345 240.37 31.7362 240.327 31.7291C240.284 31.722 240.243 31.7062 240.207 31.6827C240.153 31.6507 240.109 31.6043 240.08 31.5487C240.051 31.4931 240.039 31.4305 240.044 31.3681C240.035 31.3246 240.035 31.2798 240.044 31.2362C241.04 29.5812 241.656 27.7271 241.848 25.8069C241.897 25.3621 241.921 24.9149 241.919 24.4674C241.919 20.9684 240.523 17.6128 238.038 15.1387C235.553 12.6646 232.183 11.2747 228.668 11.2747C225.396 11.2879 222.245 12.5061 219.821 14.6945C217.397 16.8829 215.872 19.8869 215.54 23.1278C215.491 23.576 215.467 24.0266 215.469 24.4775C215.469 27.9764 216.865 31.332 219.35 33.8061C221.835 36.2803 225.205 37.6702 228.719 37.6702C229.661 37.6687 230.601 37.5701 231.522 37.3759C231.565 37.367 231.608 37.3665 231.651 37.3745C231.693 37.3825 231.733 37.3987 231.769 37.4223C231.805 37.4459 231.836 37.4764 231.86 37.5119C231.885 37.5475 231.901 37.5875 231.91 37.6296C231.922 37.6717 231.925 37.716 231.918 37.7593C231.911 37.8026 231.895 37.844 231.871 37.8806C231.847 37.9172 231.815 37.9482 231.778 37.9715C231.741 37.9947 231.699 38.0096 231.655 38.0152H231.492H231.38C230.651 38.1576 229.911 38.239 229.168 38.2588H228.709C228.236 38.2573 227.763 38.2302 227.292 38.1776C223.871 37.8258 220.702 36.2229 218.399 33.679C216.097 31.1351 214.823 27.8311 214.827 24.4065C214.827 23.9295 214.827 23.4525 214.898 22.9857C215.243 19.8455 216.66 16.9184 218.914 14.6946V14.6642ZM228.24 30.1504C227.966 30.1178 227.694 30.0704 227.425 30.0083C225.974 29.6376 224.731 28.7095 223.966 27.4273C223.202 26.1452 222.98 24.6136 223.348 23.1684C223.53 22.453 223.852 21.7804 224.295 21.189C224.739 20.5976 225.295 20.0992 225.932 19.7221C226.569 19.3451 227.275 19.0968 228.008 18.9916C228.742 18.8865 229.489 18.9264 230.208 19.1091C231.603 19.4456 232.818 20.2989 233.604 21.4953C234.39 22.6917 234.689 24.1414 234.44 25.5494C234.19 26.9574 233.411 28.218 232.262 29.0746C231.112 29.9312 229.678 30.3195 228.251 30.1605L228.24 30.1504Z" fill="#E6E6E6"/>
<path d="M249.554 45.9511V49.6958C249.553 49.7494 249.569 49.8019 249.601 49.8456C249.632 49.8894 249.676 49.9222 249.727 49.9394L252.693 50.9542C253.032 52.3898 253.603 53.7608 254.385 55.0135L253.009 57.8245C252.985 57.8726 252.977 57.9271 252.986 57.9799C252.996 58.0328 253.021 58.0815 253.06 58.1188L255.72 60.7675C255.765 60.7944 255.816 60.8086 255.868 60.8086C255.92 60.8086 255.971 60.7944 256.016 60.7675L258.829 59.3975C260.088 60.1763 261.465 60.7485 262.906 61.0923L263.926 64.0454C263.942 64.0946 263.974 64.1375 264.016 64.1683C264.057 64.1992 264.108 64.2165 264.16 64.2179H267.931C267.985 64.2158 268.036 64.1983 268.079 64.1677C268.123 64.1371 268.156 64.0946 268.176 64.0454L269.195 61.0923C270.639 60.7593 272.016 60.19 273.272 59.4076L276.096 60.7777C276.138 60.8098 276.19 60.8271 276.244 60.8271C276.297 60.8271 276.349 60.8098 276.391 60.7777L279.052 58.129C279.091 58.0942 279.117 58.0472 279.127 57.9957C279.136 57.9442 279.127 57.891 279.103 57.8448L277.717 55.0845C278.501 53.8324 279.076 52.4613 279.419 51.0252L282.385 50.0104C282.435 49.992 282.478 49.9588 282.509 49.9154C282.54 49.8719 282.557 49.8201 282.558 49.7669V45.9511C282.559 45.8975 282.542 45.845 282.511 45.8013C282.48 45.7575 282.436 45.7247 282.385 45.7076L279.419 44.6927C279.084 43.2557 278.513 41.884 277.727 40.6335L279.103 37.8224C279.127 37.7743 279.135 37.7199 279.125 37.667C279.116 37.6141 279.09 37.5655 279.052 37.5281L276.402 34.8794C276.357 34.8525 276.306 34.8383 276.254 34.8383C276.202 34.8383 276.151 34.8525 276.106 34.8794L273.283 36.2494C272.025 35.468 270.648 34.8955 269.205 34.5547L268.186 31.6117C268.169 31.5609 268.136 31.5168 268.092 31.4858C268.048 31.4548 267.995 31.4385 267.942 31.4392H264.18C264.127 31.4385 264.074 31.4548 264.03 31.4858C263.986 31.5168 263.953 31.5609 263.936 31.6117L262.916 34.5648C261.475 34.9022 260.097 35.4712 258.839 36.2494L256.026 34.7881C255.984 34.756 255.932 34.7386 255.878 34.7386C255.825 34.7386 255.773 34.756 255.731 34.7881L253.06 37.4368C253.031 37.4803 253.015 37.5315 253.015 37.5839C253.015 37.6363 253.031 37.6876 253.06 37.7311L254.426 40.532C253.641 41.7841 253.066 43.1552 252.724 44.5913L249.768 45.6061C249.728 45.6097 249.69 45.6223 249.657 45.643C249.623 45.6637 249.595 45.6919 249.574 45.7254C249.553 45.7589 249.541 45.7967 249.537 45.8359C249.534 45.875 249.539 45.9145 249.554 45.9511ZM259.237 41.0292C260.579 39.6947 262.288 38.7862 264.149 38.4188C266.009 38.0513 267.937 38.2412 269.689 38.9646C271.441 39.688 272.939 40.9123 273.992 42.4828C275.045 44.0534 275.607 45.8995 275.607 47.7879C275.607 48.1127 275.607 48.4374 275.556 48.8028C275.413 50.1955 274.964 51.5399 274.241 52.7403C274.171 52.8538 274.059 52.9354 273.93 52.9677C273.8 53 273.663 52.9803 273.548 52.9128C273.463 52.8651 273.394 52.7932 273.351 52.7065C273.307 52.6197 273.29 52.5219 273.303 52.4257C273.309 52.3513 273.33 52.2789 273.364 52.2126C274.015 51.1446 274.415 49.9445 274.536 48.7013C274.569 48.4148 274.586 48.1269 274.587 47.8387C274.578 45.6587 273.732 43.5649 272.221 41.9867C270.711 40.4085 268.651 39.4655 266.464 39.3513C264.278 39.2371 262.13 39.9602 260.462 41.3724C258.794 42.7845 257.732 44.7786 257.494 46.9456C257.462 47.2355 257.445 47.5268 257.443 47.8184C257.434 48.9482 257.651 50.0684 258.082 51.1138C258.512 52.1592 259.148 53.1088 259.95 53.9073C261.563 55.3686 263.671 56.1696 265.852 56.1501H265.485V56.3226C266.169 56.3421 266.853 56.2842 267.524 56.1501C267.673 56.1223 267.827 56.1464 267.961 56.2184C268.095 56.2905 268.199 56.4061 268.258 56.5459C268.258 56.5459 268.339 56.6473 268.329 56.7082C268.326 56.8116 268.289 56.911 268.222 56.9903C268.155 57.0696 268.064 57.124 267.962 57.1446H267.901C267.264 57.2778 266.615 57.3458 265.964 57.3476C265.628 57.3476 265.312 57.3476 264.996 57.3476C262.634 57.1019 260.447 55.9944 258.857 54.2386C257.266 52.4828 256.385 50.203 256.383 47.8387C256.383 47.5139 256.383 47.1892 256.434 46.8239C256.66 44.6227 257.651 42.5695 259.237 41.0191V41.0292ZM268.044 51.1775C267.333 51.5924 266.509 51.7735 265.689 51.695C265.5 51.6769 265.312 51.6429 265.128 51.5935C264.138 51.3445 263.287 50.7139 262.763 49.8404C262.239 48.9668 262.085 47.9219 262.335 46.9355C262.441 46.4283 262.649 45.9476 262.946 45.5226C263.244 45.0975 263.625 44.7368 264.066 44.4622C264.507 44.1876 264.999 44.0048 265.514 43.9249C266.028 43.845 266.553 43.8695 267.057 43.9971C267.561 44.1247 268.034 44.3526 268.448 44.6672C268.861 44.9818 269.206 45.3764 269.462 45.8274C269.718 46.2784 269.88 46.7763 269.937 47.2912C269.995 47.806 269.947 48.3271 269.797 48.8231C269.539 49.7906 268.909 50.6182 268.044 51.1267V51.1775Z" fill="#E6E6E6"/>
<path d="M263.64 49.2696C263.371 48.822 263.232 48.3085 263.239 47.7866C263.245 47.2647 263.398 46.755 263.68 46.3147C263.961 45.8743 264.36 45.5207 264.832 45.2934C265.304 45.0661 265.83 44.9741 266.352 45.0276C266.49 45.0356 266.627 45.0594 266.759 45.0987C267.305 45.2321 267.798 45.5246 268.176 45.9387C268.554 46.3529 268.799 46.8698 268.88 47.4235C268.961 47.9771 268.874 48.5422 268.631 49.0464C268.387 49.5507 267.998 49.9711 267.514 50.254C266.865 50.6304 266.092 50.7349 265.366 50.5446C264.64 50.3543 264.019 49.8848 263.64 49.2392V49.2696Z" fill="#E6E6E6"/>
<path d="M129.859 119.018C128.586 119.039 127.354 118.573 126.417 117.716C125.48 116.858 124.91 115.675 124.824 114.411V39.8622C124.824 34.0168 129.92 29.714 135.832 29.714H248.667C254.538 29.714 259.37 33.9661 259.37 39.8622V114.462C259.351 115.697 258.842 116.875 257.954 117.738C257.066 118.602 255.871 119.08 254.63 119.069L129.859 119.018Z" fill="white"/>
<path d="M117.403 26.5072H95.1726C94.9023 26.5072 94.643 26.4002 94.4519 26.2099C94.2607 26.0196 94.1533 25.7615 94.1533 25.4923V13.3652C94.1533 13.0961 94.2607 12.8379 94.4519 12.6476C94.643 12.4573 94.9023 12.3504 95.1726 12.3504H117.403C117.541 12.3435 117.679 12.3647 117.809 12.4126C117.939 12.4605 118.057 12.5341 118.157 12.6291C118.257 12.724 118.337 12.8382 118.391 12.9648C118.446 13.0913 118.474 13.2276 118.473 13.3652V25.4416C118.481 25.5834 118.458 25.7253 118.407 25.8578C118.356 25.9904 118.277 26.1108 118.176 26.2113C118.075 26.3117 117.954 26.3899 117.821 26.4409C117.688 26.4919 117.546 26.5144 117.403 26.5072ZM95.1726 12.7563C95.0104 12.7563 94.8548 12.8205 94.7402 12.9347C94.6255 13.0489 94.561 13.2037 94.561 13.3652V25.4416C94.561 25.6031 94.6255 25.758 94.7402 25.8721C94.8548 25.9863 95.0104 26.0505 95.1726 26.0505H117.403C117.565 26.0505 117.721 25.9863 117.836 25.8721C117.95 25.758 118.015 25.6031 118.015 25.4416V13.3652C118.015 13.2037 117.95 13.0489 117.836 12.9347C117.721 12.8205 117.565 12.7563 117.403 12.7563H95.1726Z" fill="#E6E6E6"/>
<path d="M118.249 17.3027H94.3265C94.2671 17.3027 94.21 17.2792 94.168 17.2373C94.1259 17.1954 94.1023 17.1387 94.1023 17.0794V15.2325C94.1009 15.2023 94.1057 15.1722 94.1163 15.1439C94.127 15.1156 94.1433 15.0898 94.1642 15.068C94.1852 15.0462 94.2104 15.0288 94.2383 15.017C94.2662 15.0051 94.2962 14.999 94.3265 14.9991H118.249C118.28 14.999 118.31 15.0051 118.337 15.017C118.365 15.0288 118.391 15.0462 118.411 15.068C118.432 15.0898 118.449 15.1156 118.459 15.1439C118.47 15.1722 118.475 15.2023 118.473 15.2325V17.0794C118.473 17.1387 118.45 17.1954 118.408 17.2373C118.366 17.2792 118.309 17.3027 118.249 17.3027ZM94.561 16.846H118.005V15.5065H94.561V16.846Z" fill="#E6E6E6"/>
<path d="M111.828 23.4627C111.546 23.468 111.267 23.4034 111.017 23.2749C110.766 23.1464 110.551 22.9579 110.392 22.7264C110.233 22.4949 110.133 22.2276 110.103 21.9485C110.073 21.6694 110.114 21.3873 110.22 21.1274C110.327 20.8676 110.496 20.6381 110.714 20.4598C110.932 20.2814 111.191 20.1596 111.467 20.1054C111.744 20.0512 112.03 20.0662 112.299 20.1492C112.568 20.2321 112.813 20.3804 113.01 20.5806C113.033 20.601 113.05 20.6264 113.06 20.6546C113.071 20.6827 113.075 20.713 113.071 20.743C113.073 20.7736 113.067 20.8042 113.055 20.8323C113.042 20.8604 113.024 20.8854 113 20.9053C112.762 21.1422 112.626 21.463 112.623 21.7984C112.621 21.966 112.654 22.1323 112.721 22.2862C112.787 22.4401 112.886 22.5782 113.01 22.6914C113.05 22.7403 113.072 22.8012 113.071 22.8639C113.073 22.9239 113.051 22.982 113.01 23.0263C112.686 23.3162 112.263 23.4723 111.828 23.4627ZM111.828 20.5299C111.498 20.5299 111.182 20.6603 110.949 20.8925C110.715 21.1247 110.584 21.4396 110.584 21.7679C110.584 22.0963 110.715 22.4112 110.949 22.6434C111.182 22.8756 111.498 23.006 111.828 23.006C112.071 23.0074 112.308 22.9367 112.511 22.8031C112.288 22.511 112.166 22.1549 112.164 21.7882C112.164 21.4212 112.286 21.0644 112.511 20.7734C112.309 20.6392 112.07 20.5717 111.828 20.5806V20.5299Z" fill="#E6E6E6"/>
<path d="M113.866 23.4627C113.53 23.4627 113.201 23.3633 112.921 23.1771C112.641 22.9908 112.422 22.7262 112.294 22.4165C112.165 22.1068 112.131 21.7661 112.197 21.4373C112.262 21.1086 112.425 20.8066 112.663 20.5696C112.901 20.3325 113.204 20.1711 113.534 20.1057C113.864 20.0404 114.207 20.0739 114.518 20.2022C114.829 20.3305 115.095 20.5477 115.282 20.8264C115.469 21.1051 115.568 21.4327 115.568 21.7679C115.568 22.2174 115.389 22.6485 115.07 22.9663C114.751 23.2841 114.318 23.4627 113.866 23.4627ZM113.866 20.5298C113.62 20.5298 113.38 20.6025 113.175 20.7385C112.971 20.8746 112.812 21.0679 112.717 21.2941C112.623 21.5204 112.599 21.7693 112.647 22.0095C112.695 22.2496 112.813 22.4702 112.987 22.6434C113.161 22.8165 113.382 22.9345 113.624 22.9822C113.865 23.03 114.115 23.0055 114.342 22.9118C114.569 22.8181 114.764 22.6594 114.9 22.4558C115.037 22.2522 115.11 22.0128 115.11 21.7679C115.097 21.4484 114.96 21.1464 114.728 20.9251C114.496 20.7038 114.187 20.5803 113.866 20.5806V20.5298Z" fill="#E6E6E6"/>
<path d="M105.529 20.0935H95.5907C95.5604 20.0935 95.5303 20.0874 95.5024 20.0755C95.4745 20.0637 95.4494 20.0463 95.4284 20.0245C95.4074 20.0027 95.3911 19.9769 95.3805 19.9486C95.3698 19.9203 95.3651 19.8902 95.3664 19.86C95.3664 19.8008 95.3901 19.744 95.4321 19.7022C95.4742 19.6603 95.5312 19.6368 95.5907 19.6368H105.529C105.563 19.6296 105.598 19.6301 105.632 19.6382C105.666 19.6463 105.698 19.6619 105.725 19.6838C105.752 19.7056 105.774 19.7333 105.789 19.7647C105.804 19.796 105.812 19.8304 105.812 19.8651C105.812 19.8999 105.804 19.9342 105.789 19.9656C105.774 19.997 105.752 20.0246 105.725 20.0465C105.698 20.0684 105.666 20.0839 105.632 20.0921C105.598 20.1002 105.563 20.1007 105.529 20.0935Z" fill="#E6E6E6"/>
<path d="M105.529 22.8639H95.5907C95.5303 22.8613 95.4732 22.8356 95.4315 22.7921C95.3897 22.7486 95.3664 22.6907 95.3664 22.6305C95.3651 22.6004 95.3698 22.5702 95.3805 22.542C95.3911 22.5137 95.4074 22.4879 95.4284 22.4661C95.4494 22.4442 95.4745 22.4269 95.5024 22.415C95.5303 22.4032 95.5604 22.3971 95.5907 22.3971H105.529C105.591 22.3971 105.651 22.4217 105.694 22.4655C105.738 22.5093 105.763 22.5686 105.763 22.6305C105.763 22.6924 105.738 22.7518 105.694 22.7956C105.651 22.8393 105.591 22.8639 105.529 22.8639Z" fill="#E6E6E6"/>
<path d="M97.2009 14.106H95.9471C95.8877 14.106 95.8306 14.0825 95.7886 14.0406C95.7465 13.9988 95.7229 13.942 95.7229 13.8828C95.7215 13.8526 95.7263 13.8225 95.7369 13.7942C95.7476 13.7659 95.7639 13.7401 95.7849 13.7183C95.8058 13.6965 95.831 13.6791 95.8589 13.6673C95.8868 13.6554 95.9168 13.6493 95.9471 13.6494H97.2009C97.235 13.6422 97.2703 13.6426 97.3043 13.6508C97.3382 13.6589 97.3699 13.6745 97.3971 13.6963C97.4242 13.7182 97.4461 13.7459 97.4611 13.7772C97.4761 13.8086 97.4839 13.8429 97.4839 13.8777C97.4839 13.9125 97.4761 13.9468 97.4611 13.9782C97.4461 14.0095 97.4242 14.0372 97.3971 14.0591C97.3699 14.0809 97.3382 14.0965 97.3043 14.1046C97.2703 14.1128 97.235 14.1132 97.2009 14.106Z" fill="#E6E6E6"/>
<path d="M99.7902 14.106H98.5365C98.5023 14.1132 98.467 14.1128 98.433 14.1046C98.3991 14.0965 98.3674 14.0809 98.3403 14.0591C98.3132 14.0372 98.2913 14.0095 98.2762 13.9782C98.2612 13.9468 98.2534 13.9125 98.2534 13.8777C98.2534 13.8429 98.2612 13.8086 98.2762 13.7772C98.2913 13.7459 98.3132 13.7182 98.3403 13.6963C98.3674 13.6745 98.3991 13.6589 98.433 13.6508C98.467 13.6426 98.5023 13.6422 98.5365 13.6494H99.7902C99.8205 13.6493 99.8505 13.6554 99.8784 13.6673C99.9063 13.6791 99.9315 13.6965 99.9525 13.7183C99.9734 13.7401 99.9897 13.7659 100 13.7942C100.011 13.8225 100.016 13.8526 100.014 13.8828C100.014 13.942 99.9908 13.9988 99.9488 14.0406C99.9067 14.0825 99.8497 14.106 99.7902 14.106Z" fill="#E6E6E6"/>
<path d="M102.4 14.106H101.146C101.086 14.106 101.029 14.0825 100.987 14.0406C100.945 13.9988 100.922 13.942 100.922 13.8828C100.92 13.8526 100.925 13.8225 100.936 13.7942C100.946 13.7659 100.963 13.7401 100.984 13.7183C101.005 13.6965 101.03 13.6791 101.058 13.6673C101.086 13.6554 101.116 13.6493 101.146 13.6494H102.4C102.434 13.6422 102.469 13.6426 102.503 13.6508C102.537 13.6589 102.569 13.6745 102.596 13.6963C102.623 13.7182 102.645 13.7459 102.66 13.7772C102.675 13.8086 102.683 13.8429 102.683 13.8777C102.683 13.9125 102.675 13.9468 102.66 13.9782C102.645 14.0095 102.623 14.0372 102.596 14.0591C102.569 14.0809 102.537 14.0965 102.503 14.1046C102.469 14.1128 102.434 14.1132 102.4 14.106Z" fill="#E6E6E6"/>
<path d="M94.3265 22.9654H91.554C91.4159 22.9723 91.2779 22.9511 91.1483 22.9032C91.0187 22.8553 90.9002 22.7817 90.8001 22.6867C90.7 22.5918 90.6203 22.4776 90.5659 22.351C90.5116 22.2245 90.4836 22.0882 90.4838 21.9506V9.82346C90.4764 9.68161 90.4991 9.5398 90.5503 9.40722C90.6015 9.27464 90.6801 9.15424 90.781 9.0538C90.8818 8.95336 91.0028 8.87512 91.136 8.82415C91.2691 8.77318 91.4115 8.75061 91.554 8.7579H113.785C113.927 8.75061 114.07 8.77318 114.203 8.82415C114.336 8.87512 114.457 8.95336 114.558 9.0538C114.659 9.15424 114.737 9.27464 114.788 9.40722C114.84 9.5398 114.862 9.68161 114.855 9.82346V12.5229C114.855 12.5535 114.849 12.5839 114.837 12.6122C114.825 12.6405 114.808 12.6663 114.786 12.6879C114.764 12.7096 114.739 12.7268 114.71 12.7385C114.682 12.7503 114.651 12.7563 114.62 12.7563H95.1725C95.0103 12.7563 94.8547 12.8204 94.74 12.9346C94.6253 13.0488 94.5609 13.2037 94.5609 13.3652V22.732C94.5609 22.7939 94.5362 22.8533 94.4922 22.897C94.4483 22.9408 94.3887 22.9654 94.3265 22.9654ZM91.554 9.21457C91.3918 9.21457 91.2363 9.27872 91.1216 9.39291C91.0069 9.5071 90.9424 9.66198 90.9424 9.82346V21.8998C90.9424 22.0613 91.0069 22.2162 91.1216 22.3304C91.2363 22.4446 91.3918 22.5087 91.554 22.5087H94.1022V13.3753C94.1022 13.1062 94.2096 12.8481 94.4008 12.6578C94.5919 12.4674 94.8512 12.3605 95.1215 12.3605H114.345V9.82346C114.345 9.66198 114.281 9.5071 114.166 9.39291C114.051 9.27872 113.896 9.21457 113.734 9.21457H91.554Z" fill="#E6E6E6"/>
<path d="M2.84561 67.4451C2.41103 67.445 1.98618 67.317 1.62458 67.077C1.26297 66.837 0.980781 66.4959 0.813561 66.0965C0.64634 65.6972 0.60157 65.2575 0.684882 64.8328C0.768195 64.4082 0.975868 64.0176 1.28174 63.7102C1.58761 63.4029 1.97799 63.1925 2.40372 63.1057C2.82945 63.0188 3.27148 63.0593 3.67411 63.2221C4.07675 63.3849 4.422 63.6627 4.66635 64.0205C4.91071 64.3783 5.04324 64.8001 5.04726 65.2328C5.04996 65.5223 4.995 65.8095 4.88556 66.0778C4.77612 66.3461 4.61438 66.5902 4.40967 66.7959C4.20495 67.0016 3.96133 67.1649 3.69288 67.2763C3.42442 67.3877 3.13646 67.4451 2.84561 67.4451ZM2.84561 63.8627C2.56856 63.8628 2.29778 63.9449 2.06772 64.0985C1.83766 64.2522 1.65871 64.4706 1.55365 64.7258C1.44858 64.981 1.42214 65.2616 1.47769 65.5318C1.53325 65.8021 1.66829 66.0497 1.86563 66.2433C2.06296 66.4369 2.31368 66.5677 2.58589 66.6191C2.8581 66.6704 3.13949 66.64 3.39427 66.5316C3.64906 66.4233 3.8657 66.2419 4.01666 66.0106C4.16762 65.7793 4.24607 65.5086 4.24203 65.2328C4.23667 64.8675 4.08719 64.5191 3.82589 64.2628C3.56459 64.0064 3.21246 63.8627 2.84561 63.8627Z" fill="#E6E6E6"/>
<path d="M93.4604 96.9155C93.025 96.9155 92.5993 96.7869 92.2373 96.546C91.8752 96.3052 91.593 95.9628 91.4264 95.5623C91.2597 95.1618 91.2161 94.721 91.3011 94.2958C91.386 93.8706 91.5957 93.48 91.9036 93.1735C92.2115 92.8669 92.6038 92.6581 93.0309 92.5736C93.458 92.489 93.9007 92.5324 94.303 92.6983C94.7053 92.8642 95.0491 93.1452 95.2911 93.5056C95.533 93.8661 95.6621 94.2899 95.6621 94.7235C95.6621 95.3048 95.4301 95.8624 95.0173 96.2734C94.6044 96.6845 94.0444 96.9155 93.4604 96.9155ZM93.4604 93.3331C93.1843 93.3331 92.9143 93.4147 92.6846 93.5675C92.455 93.7202 92.276 93.9374 92.1703 94.1914C92.0646 94.4454 92.037 94.725 92.0909 94.9947C92.1447 95.2644 92.2777 95.5121 92.473 95.7065C92.6683 95.901 92.9171 96.0334 93.188 96.087C93.4589 96.1407 93.7397 96.1132 93.9948 96.0079C94.25 95.9027 94.4681 95.7245 94.6215 95.4959C94.775 95.2672 94.8569 94.9984 94.8569 94.7235C94.8569 94.3547 94.7097 94.0011 94.4479 93.7404C94.186 93.4796 93.8308 93.3331 93.4604 93.3331Z" fill="#E6E6E6"/>
<path d="M69.6599 119.018C69.6068 119.018 69.5542 119.008 69.5053 118.987C69.4564 118.967 69.4121 118.937 69.3751 118.899C69.338 118.861 69.309 118.816 69.2896 118.767C69.2703 118.718 69.261 118.665 69.2623 118.612V113.071C69.261 113.019 69.2703 112.966 69.2896 112.917C69.309 112.868 69.338 112.823 69.3751 112.785C69.4121 112.747 69.4564 112.717 69.5053 112.697C69.5542 112.676 69.6068 112.666 69.6599 112.666C69.768 112.666 69.8717 112.708 69.9482 112.784C70.0246 112.861 70.0676 112.964 70.0676 113.071V118.612C70.0676 118.72 70.0246 118.823 69.9482 118.899C69.8717 118.976 69.768 119.018 69.6599 119.018Z" fill="#E6E6E6"/>
<path d="M72.4427 116.238H66.8774C66.7693 116.238 66.6656 116.195 66.5891 116.119C66.5127 116.043 66.4697 115.939 66.4697 115.832C66.4697 115.779 66.4803 115.727 66.5009 115.678C66.5215 115.629 66.5517 115.585 66.5897 115.548C66.6277 115.511 66.6728 115.482 66.7222 115.463C66.7716 115.444 66.8244 115.435 66.8774 115.436H72.4427C72.4958 115.435 72.5486 115.444 72.598 115.463C72.6474 115.482 72.6924 115.511 72.7304 115.548C72.7684 115.585 72.7986 115.629 72.8193 115.678C72.8399 115.727 72.8505 115.779 72.8505 115.832C72.8505 115.939 72.8075 116.043 72.731 116.119C72.6546 116.195 72.5509 116.238 72.4427 116.238Z" fill="#E6E6E6"/>
<path d="M57.1938 38.2892C57.1408 38.2906 57.088 38.2813 57.0386 38.2621C56.9892 38.2428 56.9441 38.2138 56.9061 38.1769C56.8681 38.1401 56.8379 38.096 56.8173 38.0473C56.7967 37.9986 56.7861 37.9463 56.7861 37.8934V32.3424C56.7861 32.2347 56.8291 32.1315 56.9055 32.0553C56.982 31.9792 57.0857 31.9364 57.1938 31.9364C57.302 31.9364 57.4057 31.9792 57.4821 32.0553C57.5586 32.1315 57.6016 32.2347 57.6016 32.3424V37.8934C57.6016 37.9463 57.591 37.9986 57.5704 38.0473C57.5497 38.096 57.5196 38.1401 57.4816 38.1769C57.4436 38.2138 57.3985 38.2428 57.3491 38.2621C57.2997 38.2813 57.2469 38.2906 57.1938 38.2892Z" fill="#E6E6E6"/>
<path d="M59.9767 35.5188H54.4114C54.3532 35.528 54.2936 35.5246 54.2368 35.5087C54.1801 35.4928 54.1274 35.4648 54.0826 35.4267C54.0377 35.3886 54.0017 35.3413 53.977 35.288C53.9522 35.2346 53.9395 35.1766 53.9395 35.1179C53.9395 35.0592 53.9522 35.0012 53.977 34.9478C54.0017 34.8945 54.0377 34.8472 54.0826 34.8091C54.1274 34.771 54.1801 34.743 54.2368 34.7271C54.2936 34.7112 54.3532 34.7078 54.4114 34.717H59.9767C60.035 34.7078 60.0945 34.7112 60.1513 34.7271C60.2081 34.743 60.2607 34.771 60.3056 34.8091C60.3505 34.8472 60.3865 34.8945 60.4112 34.9478C60.4359 35.0012 60.4487 35.0592 60.4487 35.1179C60.4487 35.1766 60.4359 35.2346 60.4112 35.288C60.3865 35.3413 60.3505 35.3886 60.3056 35.4267C60.2607 35.4648 60.2081 35.4928 60.1513 35.5087C60.0945 35.5246 60.035 35.528 59.9767 35.5188Z" fill="#E6E6E6"/>
<path d="M38.7448 7.62131C38.6917 7.62133 38.6392 7.61076 38.5903 7.59024C38.5414 7.56972 38.4971 7.53965 38.4601 7.50182C38.423 7.46399 38.3939 7.41915 38.3746 7.36996C38.3552 7.32076 38.3459 7.2682 38.3473 7.21538V1.67445C38.3459 1.62163 38.3552 1.56907 38.3746 1.51988C38.3939 1.47068 38.423 1.42584 38.4601 1.38801C38.4971 1.35017 38.5414 1.32011 38.5903 1.29959C38.6392 1.27907 38.6917 1.26851 38.7448 1.26852C38.853 1.26852 38.9567 1.31129 39.0331 1.38742C39.1096 1.46354 39.1525 1.5668 39.1525 1.67445V7.21538C39.1525 7.32304 39.1096 7.42629 39.0331 7.50242C38.9567 7.57854 38.853 7.62131 38.7448 7.62131Z" fill="#E6E6E6"/>
<path d="M41.5376 4.84071H35.9621C35.9095 4.84211 35.8572 4.83283 35.8083 4.81343C35.7595 4.79404 35.7151 4.76494 35.6779 4.7279C35.6407 4.69087 35.6115 4.64668 35.592 4.59803C35.5725 4.54938 35.5632 4.49729 35.5646 4.44493C35.5632 4.39211 35.5725 4.33955 35.5919 4.29035C35.6112 4.24116 35.6403 4.19632 35.6774 4.15849C35.7144 4.12066 35.7587 4.09059 35.8076 4.07007C35.8565 4.04955 35.909 4.03898 35.9621 4.039H41.5376C41.644 4.04165 41.7451 4.08558 41.8193 4.16143C41.8936 4.23727 41.9352 4.33901 41.9351 4.44493C41.9351 4.5499 41.8933 4.65057 41.8187 4.72479C41.7442 4.79901 41.643 4.84071 41.5376 4.84071Z" fill="#E6E6E6"/>
<path d="M71.1174 98.1637H15.393C15.0961 98.184 14.7981 98.1433 14.5176 98.0441C14.2372 97.9449 13.9802 97.7894 13.7626 97.5871C13.5451 97.3849 13.3716 97.1403 13.253 96.8685C13.1344 96.5967 13.0732 96.3035 13.0732 96.0072C13.0732 95.7109 13.1344 95.4177 13.253 95.1459C13.3716 94.8741 13.5451 94.6295 13.7626 94.4273C13.9802 94.225 14.2372 94.0695 14.5176 93.9703C14.7981 93.8711 15.0961 93.8304 15.393 93.8507H71.1174C71.4143 93.8304 71.7123 93.8711 71.9927 93.9703C72.2732 94.0695 72.5302 94.225 72.7477 94.4273C72.9653 94.6295 73.1388 94.8741 73.2573 95.1459C73.3759 95.4177 73.4371 95.7109 73.4371 96.0072C73.4371 96.3035 73.3759 96.5967 73.2573 96.8685C73.1388 97.1403 72.9653 97.3849 72.7477 97.5871C72.5302 97.7894 72.2732 97.9449 71.9927 98.0441C71.7123 98.1433 71.4143 98.184 71.1174 98.1637ZM15.393 94.6626C15.2044 94.6463 15.0145 94.6693 14.8353 94.73C14.656 94.7906 14.4914 94.8878 14.3519 95.0152C14.2124 95.1425 14.101 95.2974 14.0248 95.4699C13.9486 95.6425 13.9093 95.8289 13.9093 96.0174C13.9093 96.2058 13.9486 96.3923 14.0248 96.5648C14.101 96.7373 14.2124 96.8922 14.3519 97.0196C14.4914 97.147 14.656 97.2441 14.8353 97.3048C15.0145 97.3655 15.2044 97.3884 15.393 97.3721H71.1174C71.4579 97.3428 71.7751 97.1873 72.0061 96.9365C72.2372 96.6857 72.3653 96.3577 72.3653 96.0174C72.3653 95.677 72.2372 95.3491 72.0061 95.0982C71.7751 94.8474 71.4579 94.692 71.1174 94.6626H15.393Z" fill="#E6E6E6"/>
<path d="M96.1004 65.2327H75.5006C75.2672 65.2301 75.0442 65.1359 74.8801 64.9706C74.716 64.8053 74.624 64.5823 74.624 64.3499C74.6267 64.1192 74.7199 63.8988 74.8837 63.7356C75.0475 63.5725 75.2689 63.4797 75.5006 63.4771H96.1004C96.3338 63.4771 96.5578 63.5687 96.7239 63.7321C96.8899 63.8955 96.9845 64.1175 96.9872 64.3499C96.9872 64.584 96.8937 64.8086 96.7274 64.9742C96.5611 65.1397 96.3356 65.2327 96.1004 65.2327Z" fill="#E6E6E6"/>
<path d="M50.4159 82.2513H34.6475C34.4141 82.2513 34.1901 82.1597 34.024 81.9963C33.858 81.8329 33.7634 81.611 33.7607 81.3786C33.7607 81.1444 33.8542 80.9198 34.0205 80.7543C34.1868 80.5887 34.4123 80.4957 34.6475 80.4957H50.4159C50.5319 80.4957 50.6467 80.5186 50.7537 80.5631C50.8607 80.6075 50.9578 80.6727 51.0394 80.7549C51.1209 80.837 51.1852 80.9344 51.2287 81.0415C51.2721 81.1485 51.2938 81.2631 51.2925 81.3786C51.2925 81.4932 51.2698 81.6067 51.2257 81.7126C51.1817 81.8184 51.1171 81.9147 51.0357 81.9957C50.9543 82.0767 50.8577 82.141 50.7513 82.1849C50.645 82.2287 50.531 82.2513 50.4159 82.2513Z" fill="#E6E6E6"/>
<path d="M42.3738 71.4434C42.3382 71.4448 42.3026 71.439 42.2693 71.4264C42.236 71.4137 42.2055 71.3945 42.1798 71.3698C42.1541 71.3452 42.1337 71.3157 42.1197 71.283C42.1058 71.2503 42.0986 71.2151 42.0986 71.1796V65.3545C42.0986 65.2845 42.1266 65.2174 42.1763 65.168C42.226 65.1185 42.2934 65.0907 42.3636 65.0907H48.1838C48.2611 65.0934 48.3343 65.1262 48.3876 65.182C48.435 65.2311 48.4614 65.2966 48.4614 65.3647C48.4614 65.4328 48.435 65.4982 48.3876 65.5473L42.5675 71.3724C42.5136 71.4185 42.4449 71.4437 42.3738 71.4434ZM42.6287 65.6184V70.5504L47.562 65.6184H42.6287Z" fill="#E6E6E6"/>
<path d="M42.3635 71.4435H24.9337C24.8994 71.4435 24.8654 71.4366 24.8338 71.4232C24.8022 71.4099 24.7737 71.3902 24.7499 71.3656C24.7261 71.341 24.7075 71.3118 24.6953 71.2798C24.6831 71.2478 24.6775 71.2138 24.6789 71.1796V39.6389C24.6789 39.5707 24.7054 39.5051 24.7529 39.4559C24.8004 39.4067 24.8652 39.3777 24.9337 39.3751H48.2244C48.2947 39.3751 48.3621 39.4029 48.4118 39.4524C48.4615 39.5019 48.4895 39.569 48.4895 39.6389V65.3545C48.4909 65.3896 48.485 65.4245 48.4722 65.4572C48.4594 65.4898 48.4399 65.5195 48.415 65.5443C48.3901 65.5691 48.3603 65.5885 48.3275 65.6012C48.2947 65.614 48.2596 65.6198 48.2244 65.6184H42.6693V71.1796C42.6698 71.218 42.6618 71.2559 42.6461 71.2909C42.6303 71.3259 42.607 71.357 42.5779 71.3821C42.5488 71.4072 42.5145 71.4258 42.4775 71.4363C42.4405 71.4469 42.4016 71.4494 42.3635 71.4435ZM25.158 70.9158H42.0985V65.3545C42.0985 65.2845 42.1264 65.2174 42.1761 65.168C42.2258 65.1185 42.2933 65.0907 42.3635 65.0907H47.9187V39.8622H25.158V70.9158ZM31.4062 65.3951C31.2012 65.3915 31.0005 65.3366 30.8224 65.2355C30.6443 65.1344 30.4945 64.9904 30.3869 64.8167L29.5511 63.4365C29.4694 63.3006 29.4157 63.1498 29.3929 62.9931C29.3702 62.8363 29.3789 62.6766 29.4186 62.5232C29.4527 62.3694 29.5183 62.2242 29.6112 62.0968C29.7042 61.9693 29.8225 61.8623 29.9588 61.7824L39.7032 55.9065C39.7592 55.8864 39.8205 55.8864 39.8765 55.9065L42.5878 56.1907C42.6274 56.1945 42.6655 56.2075 42.6991 56.2287C42.7328 56.2498 42.761 56.2785 42.7814 56.3125C42.8011 56.3464 42.8115 56.3849 42.8115 56.4241C42.8115 56.4633 42.8011 56.5018 42.7814 56.5357L41.8845 59.2352C41.8591 59.2938 41.8165 59.3433 41.7622 59.3772L32.8536 64.7456L32.0687 65.2327C31.8694 65.3523 31.6385 65.4089 31.4062 65.3951ZM39.8867 56.4038L30.2136 62.239C30.1379 62.2828 30.0718 62.3413 30.0193 62.411C29.9667 62.4808 29.9289 62.5603 29.9079 62.645C29.8852 62.7322 29.8808 62.8231 29.8948 62.9121C29.9088 63.0012 29.941 63.0864 29.9894 63.1625L30.8252 64.5427C30.9183 64.6948 31.0676 64.8045 31.2411 64.8481C31.4145 64.8918 31.5983 64.8659 31.7528 64.7761L32.5886 64.2687L41.385 58.9612L42.1597 56.6677L39.8867 56.4038Z" fill="#E6E6E6"/>
<path d="M41.6398 59.3772C41.595 59.3784 41.5507 59.3677 41.5113 59.3463C41.4719 59.3249 41.4389 59.2936 41.4156 59.2555L39.6013 56.2719C39.574 56.2294 39.5596 56.1801 39.5596 56.1298C39.5596 56.0794 39.574 56.0302 39.6013 55.9877C39.6292 55.9474 39.6678 55.9156 39.7128 55.8959C39.7578 55.8762 39.8074 55.8693 39.8561 55.8761L42.5674 56.1602C42.607 56.1641 42.6451 56.1771 42.6787 56.1982C42.7124 56.2194 42.7406 56.2481 42.7611 56.282C42.7807 56.316 42.7911 56.3545 42.7911 56.3937C42.7911 56.4328 42.7807 56.4713 42.7611 56.5053L41.8641 59.2047C41.845 59.2504 41.8143 59.2904 41.775 59.3206C41.7357 59.3509 41.6891 59.3704 41.6398 59.3772ZM40.325 56.4545L41.5685 58.4842L42.1903 56.6372L40.325 56.4545Z" fill="#E6E6E6"/>
<path d="M32.7313 64.7558C32.6843 64.7547 32.6383 64.7421 32.5974 64.7191C32.5565 64.6961 32.522 64.6633 32.4968 64.6238L31.5896 63.1422C31.5673 63.1 31.5557 63.0529 31.5557 63.0052C31.5557 62.9575 31.5673 62.9104 31.5896 62.8682C31.6239 62.8207 31.6694 62.7823 31.7222 62.7566L40.6103 57.3983C40.6734 57.3788 40.7409 57.3788 40.804 57.3983C40.8381 57.4063 40.8702 57.4213 40.8983 57.4423C40.9264 57.4632 40.9498 57.4897 40.9671 57.5201L41.8743 59.0119C41.8941 59.0413 41.9076 59.0746 41.9137 59.1096C41.9198 59.1446 41.9186 59.1804 41.9099 59.2148C41.9013 59.2493 41.8855 59.2815 41.8635 59.3095C41.8416 59.3374 41.814 59.3605 41.7825 59.3772L32.874 64.7456C32.8288 64.7644 32.7787 64.768 32.7313 64.7558ZM32.1808 63.0915L32.8128 64.1063L41.2729 59.0322L40.6409 58.0173L32.1808 63.0915Z" fill="#E6E6E6"/>
<path d="M31.8139 63.264C31.7694 63.2632 31.7257 63.2518 31.6867 63.2306C31.6476 63.2094 31.6143 63.179 31.5896 63.1422L30.6926 61.6504C30.6806 61.6233 30.6743 61.5939 30.6743 61.5642C30.6743 61.5344 30.6806 61.5051 30.6926 61.4779C30.6965 61.4385 30.7096 61.4005 30.7308 61.367C30.752 61.3335 30.7809 61.3055 30.8149 61.2851L39.7235 55.9065C39.7848 55.8722 39.857 55.8625 39.9252 55.8795C39.9935 55.8965 40.0526 55.9388 40.0905 55.9979L40.9976 57.4896C41.0123 57.5215 41.0199 57.5561 41.0199 57.5911C41.0199 57.6262 41.0123 57.6608 40.9976 57.6926C40.9801 57.758 40.9405 57.8153 40.8855 57.855L31.9566 63.2031C31.9173 63.2389 31.867 63.2604 31.8139 63.264ZM31.2736 61.5997L31.9056 62.6145L40.3657 57.5404L39.7337 56.5256L31.2736 61.5997Z" fill="#E6E6E6"/>
<path d="M31.406 65.3951C31.201 65.3915 31.0003 65.3366 30.8221 65.2355C30.644 65.1344 30.4943 64.9904 30.3867 64.8167L29.5509 63.4365C29.4692 63.3006 29.4155 63.1498 29.3927 62.9931C29.37 62.8363 29.3787 62.6766 29.4184 62.5232C29.4525 62.3694 29.5181 62.2242 29.611 62.0968C29.704 61.9693 29.8223 61.8623 29.9586 61.7824L30.7944 61.2851C30.8402 61.2471 30.8979 61.2263 30.9575 61.2263C31.0171 61.2263 31.0748 61.2471 31.1206 61.2851L32.9247 64.2585C32.9436 64.2878 32.9564 64.3205 32.9625 64.3548C32.9686 64.389 32.9679 64.4241 32.9603 64.4581C32.9527 64.492 32.9385 64.5241 32.9184 64.5526C32.8983 64.581 32.8727 64.6053 32.8432 64.6238L32.0074 65.1313C31.8369 65.2755 31.6279 65.3672 31.406 65.3951ZM30.8148 61.8737L30.2134 62.239C30.1377 62.2828 30.0716 62.3413 30.0191 62.411C29.9665 62.4808 29.9286 62.5603 29.9076 62.6449C29.885 62.7322 29.8806 62.8231 29.8946 62.9121C29.9086 63.0011 29.9408 63.0864 29.9892 63.1625L30.825 64.5427C30.9181 64.6948 31.0674 64.8044 31.2409 64.8481C31.4143 64.8917 31.5981 64.8659 31.7526 64.7761L32.3641 64.4006L31.6506 63.2538L30.8148 61.8737Z" fill="#E6E6E6"/>
<path d="M42.3635 71.4435H24.9337C24.8994 71.4435 24.8654 71.4366 24.8338 71.4232C24.8022 71.4099 24.7737 71.3902 24.7499 71.3656C24.7261 71.341 24.7075 71.3118 24.6953 71.2798C24.6831 71.2478 24.6775 71.2138 24.6789 71.1796V39.6389C24.6789 39.5707 24.7054 39.5051 24.7529 39.4559C24.8004 39.4067 24.8652 39.3777 24.9337 39.3751H48.2244C48.2947 39.3751 48.3621 39.4029 48.4118 39.4524C48.4615 39.5019 48.4895 39.569 48.4895 39.6389V65.3545C48.4909 65.3896 48.485 65.4245 48.4722 65.4572C48.4594 65.4898 48.4399 65.5195 48.415 65.5443C48.3901 65.5691 48.3603 65.5885 48.3275 65.6012C48.2947 65.614 48.2596 65.6198 48.2244 65.6184H42.6693V71.1796C42.6698 71.218 42.6618 71.2559 42.6461 71.2909C42.6303 71.3259 42.607 71.357 42.5779 71.3821C42.5488 71.4072 42.5145 71.4258 42.4775 71.4363C42.4405 71.4469 42.4016 71.4494 42.3635 71.4435ZM25.158 70.9158H42.0985V65.3545C42.0985 65.2845 42.1264 65.2174 42.1761 65.168C42.2258 65.1185 42.2933 65.0907 42.3635 65.0907H47.9187V39.8622H25.158V70.9158Z" fill="#E6E6E6"/>
<path d="M42.3734 71.4434C42.3213 71.4439 42.2701 71.4291 42.2264 71.4007C42.1827 71.3724 42.1484 71.3319 42.1277 71.2842C42.107 71.2365 42.1009 71.1838 42.1102 71.1327C42.1194 71.0816 42.1436 71.0344 42.1797 70.9969L48.0101 65.182C48.0587 65.1335 48.1247 65.1063 48.1935 65.1063C48.2624 65.1063 48.3284 65.1335 48.377 65.182C48.4257 65.2304 48.453 65.2961 48.453 65.3647C48.453 65.4332 48.4257 65.4989 48.377 65.5473L42.5569 71.3724C42.5072 71.4187 42.4415 71.4441 42.3734 71.4434Z" fill="#E6E6E6"/>
<path d="M44.239 45.7177H28.5624C28.4921 45.7177 28.4247 45.6899 28.375 45.6404C28.3253 45.5909 28.2974 45.5238 28.2974 45.4539C28.2974 45.3839 28.3253 45.3168 28.375 45.2673C28.4247 45.2178 28.4921 45.19 28.5624 45.19H44.239C44.3093 45.19 44.3767 45.2178 44.4264 45.2673C44.4761 45.3168 44.504 45.3839 44.504 45.4539C44.504 45.5238 44.4761 45.5909 44.4264 45.6404C44.3767 45.6899 44.3093 45.7177 44.239 45.7177Z" fill="#E6E6E6"/>
<path d="M44.2387 49.9089H28.5621C28.5273 49.9089 28.4928 49.9021 28.4607 49.8889C28.4285 49.8756 28.3993 49.8562 28.3747 49.8316C28.3501 49.8071 28.3306 49.7781 28.3173 49.746C28.3039 49.714 28.2971 49.6797 28.2971 49.6451C28.2956 49.61 28.3015 49.5751 28.3143 49.5424C28.3271 49.5098 28.3466 49.4801 28.3715 49.4553C28.3964 49.4305 28.4262 49.4111 28.459 49.3984C28.4918 49.3856 28.5269 49.3798 28.5621 49.3812H44.2387C44.2739 49.3798 44.309 49.3856 44.3418 49.3984C44.3746 49.4111 44.4044 49.4305 44.4293 49.4553C44.4542 49.4801 44.4737 49.5098 44.4865 49.5424C44.4993 49.5751 44.5052 49.61 44.5037 49.6451C44.5037 49.6797 44.4969 49.714 44.4836 49.746C44.4702 49.7781 44.4507 49.8071 44.4261 49.8316C44.4015 49.8562 44.3723 49.8756 44.3401 49.8889C44.308 49.9021 44.2735 49.9089 44.2387 49.9089Z" fill="#E6E6E6"/>
<path d="M44.239 54.0697H28.5624C28.4921 54.0697 28.4247 54.0419 28.375 53.9924C28.3253 53.9429 28.2974 53.8758 28.2974 53.8058C28.2974 53.7359 28.3253 53.6688 28.375 53.6193C28.4247 53.5698 28.4921 53.542 28.5624 53.542H44.239C44.3093 53.542 44.3767 53.5698 44.4264 53.6193C44.4761 53.6688 44.504 53.7359 44.504 53.8058C44.504 53.8758 44.4761 53.9429 44.4264 53.9924C44.3767 54.0419 44.3093 54.0697 44.239 54.0697Z" fill="#E6E6E6"/>
<path d="M31.406 65.3951C31.201 65.3915 31.0003 65.3366 30.8221 65.2355C30.644 65.1344 30.4943 64.9904 30.3867 64.8167L29.5509 63.4365C29.4692 63.3006 29.4155 63.1498 29.3927 62.9931C29.37 62.8363 29.3787 62.6766 29.4184 62.5232C29.4525 62.3694 29.5181 62.2242 29.611 62.0968C29.704 61.9693 29.8223 61.8623 29.9586 61.7824L39.703 55.9065C39.759 55.8864 39.8203 55.8864 39.8763 55.9065L42.5876 56.1907C42.6272 56.1945 42.6653 56.2075 42.6989 56.2287C42.7326 56.2498 42.7607 56.2785 42.7812 56.3125C42.8009 56.3464 42.8113 56.3849 42.8113 56.4241C42.8113 56.4633 42.8009 56.5018 42.7812 56.5357L41.8843 59.2351C41.8589 59.2938 41.8163 59.3433 41.7619 59.3772L32.8534 64.7456L32.0685 65.2327C31.8692 65.3523 31.6382 65.4089 31.406 65.3951ZM39.8865 56.4038L30.2134 62.239C30.1377 62.2828 30.0716 62.3413 30.0191 62.411C29.9665 62.4808 29.9286 62.5603 29.9076 62.6449C29.885 62.7322 29.8806 62.8231 29.8946 62.9121C29.9086 63.0012 29.9408 63.0864 29.9892 63.1625L30.825 64.5427C30.9181 64.6948 31.0674 64.8045 31.2409 64.8481C31.4143 64.8917 31.5981 64.8659 31.7526 64.7761L32.5884 64.2687L41.3848 58.9612L42.1595 56.6676L39.8865 56.4038Z" fill="#E6E6E6"/>
<path d="M32.7311 64.7558C32.6676 64.7587 32.6055 64.7368 32.5578 64.6949L32.4967 64.6239L30.6823 61.6504C30.6478 61.5894 30.6381 61.5175 30.6552 61.4496C30.6723 61.3817 30.7148 61.3228 30.7741 61.2851C30.8354 61.2507 30.9076 61.2411 30.9758 61.2581C31.0441 61.275 31.1032 61.3174 31.141 61.3764L32.935 64.3296C32.9719 64.376 32.9932 64.4328 32.9961 64.4919C32.9961 64.5266 32.9893 64.5609 32.976 64.5929C32.9626 64.6249 32.9431 64.654 32.9185 64.6785C32.8939 64.703 32.8647 64.7224 32.8325 64.7357C32.8004 64.749 32.7659 64.7558 32.7311 64.7558Z" fill="#E6E6E6"/>
<path d="M41.6395 59.3772C41.5947 59.3784 41.5503 59.3677 41.511 59.3463C41.4716 59.3249 41.4386 59.2936 41.4153 59.2554L39.6009 56.2719C39.5821 56.2426 39.5693 56.2099 39.5632 56.1756C39.5571 56.1414 39.5578 56.1063 39.5654 56.0723C39.573 56.0384 39.5872 56.0062 39.6073 55.9778C39.6274 55.9493 39.6529 55.9251 39.6825 55.9065C39.7438 55.8722 39.816 55.8625 39.8842 55.8795C39.9524 55.8965 40.0116 55.9388 40.0494 55.9979L41.8637 58.9814C41.8836 59.0109 41.8971 59.0442 41.9032 59.0791C41.9093 59.1141 41.9081 59.15 41.8994 59.1844C41.8908 59.2188 41.875 59.2511 41.853 59.279C41.8311 59.307 41.8035 59.3301 41.772 59.3468C41.7309 59.3674 41.6855 59.3778 41.6395 59.3772Z" fill="#E6E6E6"/>
<path d="M31.8138 63.264C31.7692 63.2641 31.7252 63.2531 31.686 63.2318C31.6468 63.2105 31.6136 63.1797 31.5896 63.1422C31.5551 63.0812 31.5454 63.0093 31.5624 62.9414C31.5795 62.8734 31.622 62.8146 31.6813 62.7769L40.6001 57.3983C40.6302 57.3803 40.6636 57.3684 40.6983 57.3633C40.733 57.3581 40.7685 57.3598 40.8025 57.3683C40.8366 57.3768 40.8687 57.3919 40.8969 57.4127C40.9251 57.4335 40.9489 57.4597 40.967 57.4897C40.9851 57.5196 40.997 57.5529 41.0022 57.5875C41.0074 57.6221 41.0057 57.6573 40.9971 57.6912C40.9886 57.7252 40.9735 57.7571 40.9526 57.7852C40.9317 57.8133 40.9054 57.837 40.8753 57.855L31.9565 63.2031C31.9173 63.239 31.8669 63.2604 31.8138 63.264Z" fill="#E6E6E6"/>
<path d="M279.215 79.0546C278.779 79.0546 278.354 78.9261 277.992 78.6852C277.63 78.4443 277.347 78.102 277.181 77.7014C277.014 77.3009 276.971 76.8602 277.055 76.435C277.14 76.0098 277.35 75.6192 277.658 75.3126C277.966 75.0061 278.358 74.7973 278.785 74.7127C279.212 74.6281 279.655 74.6715 280.057 74.8374C280.46 75.0034 280.804 75.2843 281.045 75.6448C281.287 76.0053 281.417 76.4291 281.417 76.8626C281.417 77.1505 281.36 77.4355 281.249 77.7014C281.138 77.9674 280.976 78.209 280.772 78.4126C280.567 78.6161 280.325 78.7776 280.057 78.8878C279.79 78.9979 279.504 79.0546 279.215 79.0546ZM279.215 75.4723C278.939 75.4723 278.669 75.5538 278.439 75.7066C278.209 75.8594 278.03 76.0765 277.925 76.3306C277.819 76.5846 277.791 76.8642 277.845 77.1338C277.899 77.4035 278.032 77.6513 278.227 77.8457C278.423 78.0401 278.672 78.1726 278.942 78.2262C279.213 78.2798 279.494 78.2523 279.749 78.1471C280.004 78.0418 280.222 77.8637 280.376 77.635C280.529 77.4064 280.611 77.1376 280.611 76.8626C280.609 76.4947 280.461 76.1426 280.199 75.8824C279.938 75.6223 279.584 75.475 279.215 75.4723Z" fill="#E6E6E6"/>
<path d="M369.83 108.525C369.394 108.525 368.968 108.396 368.606 108.156C368.244 107.915 367.962 107.572 367.796 107.172C367.629 106.771 367.585 106.331 367.67 105.905C367.755 105.48 367.965 105.09 368.273 104.783C368.581 104.476 368.973 104.268 369.4 104.183C369.827 104.099 370.27 104.142 370.672 104.308C371.074 104.474 371.418 104.755 371.66 105.115C371.902 105.476 372.031 105.899 372.031 106.333C372.031 106.621 371.974 106.906 371.864 107.172C371.753 107.438 371.591 107.679 371.386 107.883C371.182 108.087 370.939 108.248 370.672 108.358C370.405 108.468 370.119 108.525 369.83 108.525ZM369.83 104.943C369.553 104.943 369.283 105.024 369.054 105.177C368.824 105.33 368.645 105.547 368.539 105.801C368.434 106.055 368.406 106.335 368.46 106.604C368.514 106.874 368.647 107.122 368.842 107.316C369.037 107.511 369.286 107.643 369.557 107.697C369.828 107.75 370.109 107.723 370.364 107.617C370.619 107.512 370.837 107.334 370.991 107.105C371.144 106.877 371.226 106.608 371.226 106.333C371.226 105.964 371.079 105.611 370.817 105.35C370.555 105.089 370.2 104.943 369.83 104.943Z" fill="#E6E6E6"/>
<path d="M346.009 130.618C345.956 130.619 345.904 130.61 345.855 130.59C345.806 130.571 345.762 130.542 345.725 130.505C345.688 130.468 345.658 130.424 345.639 130.375C345.619 130.326 345.61 130.274 345.611 130.222V124.671C345.61 124.619 345.619 124.566 345.639 124.518C345.658 124.469 345.688 124.425 345.725 124.388C345.762 124.351 345.806 124.322 345.855 124.302C345.904 124.283 345.956 124.274 346.009 124.275C346.062 124.274 346.115 124.283 346.164 124.302C346.214 124.322 346.259 124.35 346.297 124.387C346.335 124.424 346.365 124.468 346.386 124.517C346.406 124.566 346.417 124.618 346.417 124.671V130.181C346.423 130.237 346.416 130.294 346.398 130.348C346.38 130.401 346.351 130.45 346.312 130.492C346.274 130.533 346.227 130.566 346.174 130.587C346.122 130.609 346.066 130.619 346.009 130.618Z" fill="#E6E6E6"/>
<path d="M348.812 127.847H343.246C343.188 127.856 343.129 127.853 343.072 127.837C343.015 127.821 342.962 127.793 342.918 127.755C342.873 127.717 342.837 127.67 342.812 127.616C342.787 127.563 342.774 127.505 342.774 127.446C342.774 127.388 342.787 127.33 342.812 127.276C342.837 127.223 342.873 127.176 342.918 127.138C342.962 127.099 343.015 127.071 343.072 127.056C343.129 127.04 343.188 127.036 343.246 127.046H348.812C348.87 127.036 348.929 127.04 348.986 127.056C349.043 127.071 349.096 127.099 349.141 127.138C349.185 127.176 349.221 127.223 349.246 127.276C349.271 127.33 349.284 127.388 349.284 127.446C349.284 127.505 349.271 127.563 349.246 127.616C349.221 127.67 349.185 127.717 349.141 127.755C349.096 127.793 349.043 127.821 348.986 127.837C348.929 127.853 348.87 127.856 348.812 127.847Z" fill="#E6E6E6"/>
<path d="M333.563 49.9089C333.455 49.9089 333.352 49.8662 333.275 49.7901C333.199 49.7139 333.156 49.6107 333.156 49.503V43.9215C333.156 43.8138 333.199 43.7106 333.275 43.6345C333.352 43.5583 333.455 43.5156 333.563 43.5156C333.617 43.5155 333.669 43.5261 333.718 43.5466C333.767 43.5672 333.811 43.5972 333.848 43.6351C333.885 43.6729 333.914 43.7177 333.934 43.7669C333.953 43.8161 333.962 43.8687 333.961 43.9215V49.4624C333.968 49.5185 333.963 49.5755 333.947 49.6295C333.93 49.6835 333.902 49.7334 333.864 49.7757C333.827 49.818 333.78 49.8518 333.728 49.8748C333.676 49.8978 333.62 49.9094 333.563 49.9089Z" fill="#E6E6E6"/>
<path d="M336.346 47.1283H330.781C330.728 47.1297 330.675 47.1204 330.626 47.1011C330.576 47.0819 330.531 47.0529 330.493 47.016C330.455 46.9791 330.425 46.9351 330.404 46.8864C330.384 46.8377 330.373 46.7854 330.373 46.7325C330.373 46.6249 330.416 46.5216 330.492 46.4455C330.569 46.3694 330.673 46.3266 330.781 46.3266H336.346C336.4 46.3266 336.453 46.3371 336.502 46.3575C336.552 46.3779 336.597 46.4078 336.634 46.4455C336.672 46.4832 336.702 46.5279 336.723 46.5772C336.743 46.6264 336.754 46.6792 336.754 46.7325C336.754 46.7854 336.743 46.8377 336.723 46.8864C336.702 46.9351 336.672 46.9791 336.634 47.016C336.596 47.0529 336.551 47.0819 336.501 47.1011C336.452 47.1204 336.399 47.1297 336.346 47.1283Z" fill="#E6E6E6"/>
<path d="M315.114 19.2309C315.061 19.2309 315.009 19.2203 314.96 19.1998C314.911 19.1793 314.867 19.1492 314.83 19.1114C314.793 19.0735 314.764 19.0287 314.744 18.9795C314.725 18.9303 314.716 18.8778 314.717 18.8249V13.284C314.716 13.2312 314.725 13.1786 314.744 13.1294C314.764 13.0802 314.793 13.0354 314.83 12.9976C314.867 12.9597 314.911 12.9297 314.96 12.9091C315.009 12.8886 315.061 12.8781 315.114 12.8781C315.223 12.8781 315.326 12.9208 315.403 12.997C315.479 13.0731 315.522 13.1763 315.522 13.284V18.8249C315.522 18.9326 315.479 19.0358 315.403 19.112C315.326 19.1881 315.223 19.2309 315.114 19.2309Z" fill="#E6E6E6"/>
<path d="M317.897 16.4604H312.373C312.264 16.4604 312.161 16.4176 312.084 16.3415C312.008 16.2654 311.965 16.1621 311.965 16.0545C311.965 16.0016 311.975 15.9493 311.996 15.9006C312.017 15.8519 312.047 15.8079 312.085 15.771C312.123 15.7341 312.168 15.7051 312.217 15.6859C312.267 15.6666 312.319 15.6573 312.373 15.6587H317.938C317.991 15.6573 318.044 15.6666 318.093 15.6859C318.143 15.7051 318.188 15.7341 318.226 15.771C318.264 15.8079 318.294 15.8519 318.314 15.9006C318.335 15.9493 318.346 16.0016 318.346 16.0545C318.346 16.1114 318.334 16.1677 318.311 16.2198C318.288 16.2719 318.254 16.3186 318.212 16.3569C318.17 16.3952 318.12 16.4241 318.066 16.442C318.011 16.4598 317.954 16.4661 317.897 16.4604Z" fill="#E6E6E6"/>
<path d="M347.487 109.773H291.763C291.466 109.794 291.168 109.753 290.887 109.654C290.607 109.554 290.35 109.399 290.132 109.197C289.915 108.994 289.741 108.75 289.623 108.478C289.504 108.206 289.443 107.913 289.443 107.617C289.443 107.32 289.504 107.027 289.623 106.755C289.741 106.484 289.915 106.239 290.132 106.037C290.35 105.835 290.607 105.679 290.887 105.58C291.168 105.481 291.466 105.44 291.763 105.46H347.487C347.784 105.44 348.082 105.481 348.362 105.58C348.643 105.679 348.9 105.835 349.117 106.037C349.335 106.239 349.508 106.484 349.627 106.755C349.746 107.027 349.807 107.32 349.807 107.617C349.807 107.913 349.746 108.206 349.627 108.478C349.508 108.75 349.335 108.994 349.117 109.197C348.9 109.399 348.643 109.554 348.362 109.654C348.082 109.753 347.784 109.794 347.487 109.773ZM291.763 106.272C291.403 106.272 291.058 106.414 290.804 106.667C290.55 106.921 290.407 107.264 290.407 107.622C290.407 107.98 290.55 108.323 290.804 108.576C291.058 108.829 291.403 108.972 291.763 108.972H347.487C347.847 108.972 348.191 108.829 348.446 108.576C348.7 108.323 348.843 107.98 348.843 107.622C348.843 107.264 348.7 106.921 348.446 106.667C348.191 106.414 347.847 106.272 347.487 106.272H291.763Z" fill="#E6E6E6"/>
<path d="M372.51 76.8626H351.87C351.754 76.8639 351.64 76.8423 351.533 76.7989C351.426 76.7555 351.329 76.6913 351.247 76.61C351.165 76.5287 351.101 76.4319 351.057 76.3254C351.014 76.2189 350.992 76.1048 350.993 75.9898C350.992 75.8744 351.014 75.7598 351.057 75.6527C351.1 75.5457 351.165 75.4483 351.246 75.3661C351.328 75.284 351.425 75.2188 351.532 75.1743C351.639 75.1298 351.754 75.1069 351.87 75.1069H372.51C372.746 75.1069 372.971 75.2 373.137 75.3655C373.304 75.5311 373.397 75.7557 373.397 75.9898C373.397 76.1053 373.374 76.2196 373.329 76.3262C373.285 76.4327 373.219 76.5294 373.137 76.6106C373.054 76.6917 372.956 76.7558 372.849 76.7991C372.741 76.8423 372.626 76.8639 372.51 76.8626Z" fill="#E6E6E6"/>
<path d="M326.775 93.8609H311.017C310.901 93.8622 310.786 93.8406 310.678 93.7974C310.571 93.7541 310.473 93.69 310.39 93.6089C310.308 93.5277 310.242 93.431 310.198 93.3245C310.153 93.2179 310.13 93.1036 310.13 92.9881C310.13 92.754 310.223 92.5294 310.39 92.3638C310.556 92.1982 310.781 92.1052 311.017 92.1052H326.775C326.891 92.1052 327.006 92.1281 327.113 92.1726C327.22 92.2171 327.317 92.2823 327.398 92.3644C327.48 92.4465 327.544 92.544 327.588 92.651C327.631 92.7581 327.653 92.8727 327.651 92.9881C327.653 93.1031 327.631 93.2172 327.587 93.3237C327.544 93.4302 327.479 93.527 327.398 93.6083C327.316 93.6896 327.219 93.7538 327.112 93.7972C327.005 93.8406 326.89 93.8622 326.775 93.8609Z" fill="#E6E6E6"/>
<path d="M318.937 152H293.455C293.133 152 292.824 151.873 292.597 151.646C292.369 151.42 292.242 151.113 292.242 150.792V133.672C292.242 133.351 292.369 133.043 292.596 132.815C292.824 132.587 293.132 132.457 293.455 132.455H318.937C319.097 132.455 319.256 132.486 319.403 132.547C319.551 132.609 319.685 132.699 319.798 132.812C319.911 132.925 320 133.059 320.06 133.207C320.121 133.355 320.151 133.513 320.15 133.672V150.792C320.15 151.113 320.022 151.42 319.795 151.646C319.567 151.873 319.259 152 318.937 152ZM293.455 132.911C293.356 132.913 293.258 132.933 293.167 132.972C293.076 133.011 292.993 133.068 292.924 133.138C292.855 133.209 292.801 133.293 292.764 133.384C292.727 133.476 292.709 133.574 292.711 133.672V150.792C292.711 150.99 292.789 151.179 292.928 151.32C293.067 151.46 293.256 151.541 293.455 151.543H318.937C319.137 151.543 319.329 151.464 319.47 151.323C319.612 151.183 319.691 150.992 319.691 150.792V133.672C319.691 133.472 319.612 133.28 319.471 133.138C319.33 132.995 319.138 132.914 318.937 132.911H293.455Z" fill="#E6E6E6"/>
<path d="M319.925 136.412H292.405C292.37 136.42 292.335 136.419 292.301 136.411C292.267 136.403 292.236 136.387 292.208 136.365C292.181 136.343 292.159 136.316 292.144 136.284C292.129 136.253 292.122 136.219 292.122 136.184C292.122 136.149 292.129 136.115 292.144 136.084C292.159 136.052 292.181 136.025 292.208 136.003C292.236 135.981 292.267 135.965 292.301 135.957C292.335 135.949 292.37 135.948 292.405 135.956H319.925C319.985 135.956 320.042 135.979 320.084 136.021C320.126 136.063 320.15 136.12 320.15 136.179C320.151 136.209 320.146 136.239 320.136 136.267C320.125 136.296 320.109 136.322 320.088 136.343C320.067 136.365 320.041 136.383 320.014 136.394C319.986 136.406 319.956 136.412 319.925 136.412Z" fill="#E6E6E6"/>
<path d="M295.044 135.387H293.587C293.556 135.387 293.526 135.381 293.499 135.369C293.471 135.358 293.445 135.34 293.424 135.318C293.404 135.297 293.387 135.271 293.377 135.243C293.366 135.214 293.361 135.184 293.363 135.154V133.713C293.361 133.683 293.366 133.653 293.377 133.624C293.387 133.596 293.404 133.57 293.424 133.548C293.445 133.527 293.471 133.509 293.499 133.497C293.526 133.486 293.556 133.479 293.587 133.479H295.044C295.107 133.479 295.166 133.504 295.21 133.548C295.254 133.592 295.279 133.651 295.279 133.713V135.154C295.279 135.216 295.254 135.275 295.21 135.319C295.166 135.363 295.107 135.387 295.044 135.387ZM293.821 134.931H294.84V133.916H293.821V134.931Z" fill="#E6E6E6"/>
<path d="M297.888 135.387H296.441C296.379 135.387 296.319 135.363 296.275 135.319C296.231 135.275 296.207 135.216 296.207 135.154V133.713C296.207 133.651 296.231 133.592 296.275 133.548C296.319 133.504 296.379 133.479 296.441 133.479H297.888C297.951 133.479 298.01 133.504 298.054 133.548C298.098 133.592 298.123 133.651 298.123 133.713V135.154C298.123 135.216 298.098 135.275 298.054 135.319C298.01 135.363 297.951 135.387 297.888 135.387ZM296.665 134.931H297.684V133.916H296.665V134.931Z" fill="#E6E6E6"/>
<path d="M300.722 135.387H299.264C299.202 135.387 299.142 135.363 299.098 135.319C299.054 135.275 299.03 135.216 299.03 135.154V133.713C299.03 133.651 299.054 133.592 299.098 133.548C299.142 133.504 299.202 133.479 299.264 133.479H300.722C300.752 133.479 300.782 133.486 300.81 133.497C300.838 133.509 300.863 133.527 300.884 133.548C300.905 133.57 300.921 133.596 300.932 133.624C300.943 133.653 300.947 133.683 300.946 133.713V135.154C300.947 135.184 300.943 135.214 300.932 135.243C300.921 135.271 300.905 135.297 300.884 135.318C300.863 135.34 300.838 135.358 300.81 135.369C300.782 135.381 300.752 135.387 300.722 135.387ZM299.499 134.931H300.518V133.916H299.499V134.931Z" fill="#E6E6E6"/>
<path d="M302.639 148.844C302.592 148.858 302.542 148.858 302.496 148.844L296.737 144.074C296.712 144.053 296.692 144.026 296.678 143.997C296.663 143.967 296.656 143.935 296.655 143.902C296.656 143.867 296.663 143.833 296.677 143.802C296.691 143.771 296.712 143.742 296.737 143.719L302.19 139.213C302.232 139.172 302.289 139.148 302.348 139.148C302.407 139.148 302.464 139.172 302.506 139.213C302.528 139.234 302.546 139.259 302.558 139.287C302.57 139.315 302.576 139.345 302.576 139.376C302.576 139.406 302.57 139.436 302.558 139.464C302.546 139.492 302.528 139.517 302.506 139.538L297.267 143.881L302.791 148.448C302.834 148.492 302.857 148.55 302.857 148.611C302.857 148.671 302.834 148.729 302.791 148.773C302.75 148.813 302.696 148.838 302.639 148.844Z" fill="#E6E6E6"/>
<path d="M309.732 148.844C309.699 148.843 309.667 148.836 309.637 148.822C309.607 148.808 309.581 148.788 309.559 148.763C309.537 148.742 309.519 148.717 309.507 148.689C309.495 148.661 309.489 148.631 309.489 148.6C309.489 148.57 309.495 148.54 309.507 148.512C309.519 148.484 309.537 148.459 309.559 148.438L315.104 143.851L309.865 139.508C309.842 139.488 309.823 139.465 309.81 139.438C309.796 139.412 309.788 139.383 309.786 139.353C309.783 139.323 309.787 139.293 309.796 139.265C309.805 139.237 309.82 139.211 309.839 139.188C309.859 139.165 309.883 139.147 309.909 139.133C309.936 139.12 309.965 139.111 309.995 139.109C310.024 139.107 310.054 139.11 310.083 139.119C310.111 139.129 310.138 139.143 310.16 139.163L315.614 143.668C315.639 143.692 315.659 143.72 315.673 143.751C315.687 143.783 315.695 143.817 315.695 143.851C315.695 143.884 315.687 143.916 315.673 143.946C315.659 143.976 315.639 144.002 315.614 144.024L309.855 148.793C309.818 148.819 309.776 148.836 309.732 148.844Z" fill="#E6E6E6"/>
<path d="M303.311 149.869H303.209C303.182 149.856 303.158 149.838 303.138 149.815C303.118 149.793 303.103 149.767 303.094 149.738C303.084 149.71 303.08 149.68 303.083 149.65C303.085 149.62 303.094 149.591 303.107 149.564L308.815 138.229C308.828 138.202 308.847 138.178 308.869 138.158C308.892 138.138 308.918 138.123 308.947 138.114C308.975 138.104 309.005 138.1 309.035 138.103C309.065 138.105 309.095 138.114 309.121 138.127C309.174 138.156 309.214 138.203 309.233 138.259C309.252 138.316 309.248 138.378 309.223 138.432L303.515 149.767C303.493 149.801 303.463 149.828 303.427 149.846C303.391 149.864 303.351 149.872 303.311 149.869Z" fill="#E6E6E6"/>
<path d="M248.667 32.7585H135.832C134.904 32.7581 133.986 32.943 133.132 33.3025C132.277 33.6619 131.504 34.1884 130.858 34.8509C130.211 35.5133 129.705 36.2982 129.369 37.159C129.033 38.0198 128.874 38.939 128.901 39.8622V114.462C128.901 115.111 129.217 116.025 129.859 116.025H254.63C255.036 115.963 255.413 115.781 255.713 115.502C256.014 115.223 256.222 114.861 256.312 114.462V39.8622C256.312 35.8943 252.602 32.7585 248.667 32.7585ZM253.254 113.944H130.94V39.8622C130.94 37.2237 133.182 35.8029 135.832 35.8029H248.667C251.307 35.8029 253.254 37.1729 253.254 39.8622V113.944Z" fill="#F2F2F2"/>
<path d="M246.944 40.3392H137.544C136.897 40.3392 136.372 40.8617 136.372 41.5062V106.769C136.372 107.414 136.897 107.936 137.544 107.936H246.944C247.592 107.936 248.116 107.414 248.116 106.769V41.5062C248.116 40.8617 247.592 40.3392 246.944 40.3392Z" fill="#F2F2F2"/>
<path d="M254.64 126.995H129.859C125.068 126.995 121.165 123.95 121.165 120.124V114.411C121.165 114.104 121.287 113.81 121.505 113.593C121.723 113.376 122.018 113.254 122.327 113.254H262.173C262.481 113.254 262.776 113.376 262.994 113.593C263.212 113.81 263.335 114.104 263.335 114.411V120.124C263.335 123.91 259.441 126.995 254.64 126.995ZM123.499 115.578V120.124C123.499 122.58 126.414 124.661 129.859 124.661H254.64C258.085 124.661 261 122.58 261 120.124V115.578H123.499Z" fill="#F2F2F2"/>
<path d="M192.25 123.778C191.524 123.778 190.814 123.564 190.211 123.162C189.607 122.761 189.137 122.19 188.859 121.523C188.582 120.855 188.509 120.12 188.651 119.412C188.792 118.703 189.142 118.052 189.655 117.541C190.168 117.03 190.822 116.682 191.534 116.541C192.245 116.4 192.983 116.473 193.654 116.749C194.324 117.026 194.897 117.494 195.301 118.095C195.704 118.696 195.919 119.402 195.919 120.124C195.919 121.093 195.532 122.023 194.844 122.708C194.156 123.393 193.223 123.778 192.25 123.778ZM192.25 118.795C191.985 118.795 191.727 118.873 191.508 119.019C191.288 119.165 191.117 119.373 191.016 119.616C190.915 119.859 190.888 120.126 190.94 120.384C190.991 120.642 191.119 120.879 191.305 121.064C191.492 121.25 191.73 121.377 191.989 121.428C192.248 121.48 192.516 121.453 192.76 121.353C193.004 121.252 193.213 121.082 193.36 120.863C193.506 120.644 193.585 120.387 193.585 120.124C193.585 119.772 193.444 119.434 193.194 119.184C192.943 118.935 192.604 118.795 192.25 118.795Z" fill="#F2F2F2"/>
<path d="M153.568 97.0068C151.4 94.6949 148.592 93.0749 145.499 92.3516C142.406 91.6283 139.168 91.8342 136.193 92.9433C133.218 94.0524 130.64 96.0149 128.785 98.5826C126.93 101.15 125.881 104.208 125.771 107.369C125.662 110.53 126.496 113.652 128.168 116.342C129.841 119.031 132.276 121.166 135.168 122.477C138.059 123.787 141.275 124.216 144.411 123.707C147.546 123.198 150.46 121.774 152.783 119.617C155.897 116.721 157.729 112.713 157.876 108.474C158.023 104.234 156.473 100.109 153.568 97.0068ZM149.98 116.613C148.252 118.218 146.086 119.276 143.754 119.655C141.423 120.034 139.031 119.716 136.881 118.741C134.731 117.766 132.919 116.179 131.675 114.179C130.431 112.18 129.81 109.858 129.892 107.507C129.973 105.157 130.752 102.883 132.131 100.973C133.51 99.0635 135.427 97.6038 137.64 96.7786C139.852 95.9534 142.26 95.7998 144.56 96.3372C146.86 96.8745 148.948 98.0787 150.561 99.7976C152.719 102.106 153.87 105.173 153.761 108.325C153.652 111.477 152.292 114.458 149.98 116.613Z" fill="white"/>
<path d="M154.768 107.92C154.858 100.898 149.214 95.1331 142.161 95.0436C135.107 94.9541 129.317 100.574 129.227 107.596C129.137 114.618 134.782 120.384 141.835 120.473C148.888 120.562 154.679 114.942 154.768 107.92Z" fill="#F2F2F2"/>
<path opacity="0.35" d="M133.743 108.555C134.469 108.555 135.057 107.969 135.057 107.246C135.057 106.523 134.469 105.937 133.743 105.937C133.016 105.937 132.428 106.523 132.428 107.246C132.428 107.969 133.016 108.555 133.743 108.555Z" fill="white"/>
<path d="M152.905 97.159C150.798 94.9944 148.093 93.5013 145.132 92.8692C142.172 92.237 139.09 92.4941 136.276 93.608C133.463 94.7219 131.045 96.6423 129.329 99.1259C127.613 101.61 126.677 104.544 126.638 107.559C126.599 110.573 127.46 113.531 129.112 116.057C130.764 118.583 133.132 120.565 135.916 121.75C138.7 122.935 141.774 123.27 144.75 122.713C147.725 122.157 150.468 120.733 152.63 118.623C154.064 117.232 155.209 115.573 155.999 113.741C156.79 111.91 157.21 109.941 157.235 107.948C157.261 105.954 156.891 103.975 156.148 102.124C155.405 100.273 154.303 98.5859 152.905 97.159ZM132.846 116.633C131.082 114.833 129.894 112.553 129.432 110.08C128.97 107.608 129.255 105.054 130.251 102.743C131.246 100.432 132.908 98.4664 135.026 97.0953C137.143 95.7242 139.621 95.0091 142.147 95.0403C144.673 95.0715 147.133 95.8477 149.215 97.2707C151.298 98.6937 152.91 100.7 153.848 103.035C154.785 105.37 155.006 107.929 154.483 110.39C153.96 112.85 152.715 115.101 150.907 116.857C148.481 119.209 145.217 120.507 141.83 120.466C138.444 120.424 135.212 119.045 132.846 116.633Z" fill="#CCCCCC"/>
<path d="M112.908 135.976C112.566 135.626 112.296 135.213 112.114 134.759C111.932 134.306 111.842 133.821 111.849 133.333C111.856 132.845 111.959 132.362 112.153 131.914C112.347 131.465 112.628 131.059 112.979 130.719L123.998 120.033L129.207 125.361L118.188 136.057C117.836 136.397 117.42 136.665 116.965 136.845C116.509 137.025 116.022 137.114 115.531 137.107C115.041 137.099 114.557 136.995 114.107 136.801C113.656 136.607 113.249 136.327 112.908 135.976Z" fill="#CCCCCC"/>
<path d="M125.577 117.25L124.658 118.143C123.553 119.215 123.531 120.975 124.607 122.075L127.169 124.691C128.245 125.791 130.014 125.813 131.118 124.741L132.038 123.849C133.142 122.777 133.165 121.016 132.088 119.917L129.527 117.301C128.45 116.201 126.682 116.179 125.577 117.25Z" fill="#FFFFFD"/>
</g>
<defs>
<clipPath id="clip0_84_1183">
<rect width="372.712" height="152" fill="white" transform="translate(0.644043)"/>
</clipPath>
</defs>
</svg>
