<svg width="375" height="274" viewBox="0 0 375 274" fill="none" xmlns="http://www.w3.org/2000/svg">
<path d="M0 3.00002C0 -20.5702 0 -32.3553 7.32233 -39.6777C14.6447 -47 26.4279 -47 49.9943 -47C63.0918 -47 77.0381 -47 89.5283 -47C127.547 -47 195 -47 195 -47H340C363.57 -47 375.355 -47 382.678 -39.6777C390 -32.3553 390 -20.5702 390 3.00002V12.8918V22.7835C390 46.3537 390 58.1388 382.678 65.4612C375.355 72.7835 363.588 72.7835 340.052 72.7835C273.003 72.7835 159.695 72.7835 137.358 72.7835C0 72.7835 0 274 0 274V3.00002Z" fill="#012269"/>
</svg>
